<?xml version="1.0" encoding="UTF-8"?>
<svg version="1.1" xmlns="http://www.w3.org/2000/svg" width="300" height="300">
<path d="M0 0 C6.06960024 6.7268181 5.28298044 14.77795332 5.2722168 23.32788086 C5.28124231 24.77717928 5.29157146 26.22647007 5.30310059 27.67575073 C5.33060428 31.59465308 5.33994603 35.51341032 5.34595466 39.43239665 C5.35535566 43.53372967 5.38156042 47.63495504 5.40596008 51.73622131 C5.44958138 59.49560521 5.47815515 67.25496816 5.50128347 75.01443726 C5.5283586 83.85125292 5.57226866 92.68796006 5.61757219 101.52469814 C5.71035585 119.69609558 5.7820653 137.86752173 5.83984375 156.0390625 C7.60052624 154.60659496 9.36007296 153.17273133 11.11914062 151.73828125 C12.09911011 150.93994873 13.07907959 150.14161621 14.08874512 149.3190918 C17.28702789 146.66844949 20.33310414 143.90202973 23.33984375 141.0390625 C28.09696133 136.57647698 33.00487808 132.40079838 38.09375 128.31640625 C41.10303333 125.8207986 43.97924661 123.20142769 46.83984375 120.5390625 C50.54846063 117.08744314 54.3249027 113.77384102 58.27734375 110.6015625 C62.53344426 107.18192105 66.54797806 103.58318558 70.52734375 99.8515625 C83.14081691 88.0390625 83.14081691 88.0390625 85.83984375 88.0390625 C85.83984375 111.4690625 85.83984375 134.8990625 85.83984375 159.0390625 C94.54286845 151.96164397 94.54286845 151.96164397 102.83984375 144.5390625 C107.42367172 140.26600253 112.1746124 136.28120267 117.05859375 132.3515625 C120.61169461 129.39729886 123.98008055 126.26992826 127.36157227 123.12280273 C130.57283425 120.15190622 133.8661219 117.33945173 137.27734375 114.6015625 C141.46227429 111.23555362 145.42250686 107.7068471 149.33984375 104.0390625 C164.5899056 89.78904188 164.5899056 89.78904188 169.83984375 88.0390625 C169.83984375 152.0590625 169.83984375 216.0790625 169.83984375 282.0390625 C71.49984375 282.0390625 -26.84015625 282.0390625 -128.16015625 282.0390625 C-128.22203125 237.1384375 -128.28390625 192.2378125 -128.34765625 145.9765625 C-128.37496826 131.787771 -128.40228027 117.59897949 -128.43041992 102.98022461 C-128.44396973 85.68273926 -128.44396973 85.68273926 -128.44648743 77.59059143 C-128.44928762 71.92669449 -128.46030305 66.2628861 -128.47688293 60.59901428 C-128.49597428 54.06754879 -128.50466518 47.53616837 -128.5004911 41.00467477 C-128.49868318 37.66321718 -128.50322799 34.32210224 -128.51780164 30.98065364 C-128.53268746 27.40193993 -128.52913945 23.82370417 -128.5209198 20.24497986 C-128.52965779 19.20344033 -128.53839579 18.16190081 -128.54739857 17.08879948 C-128.50739931 10.62472281 -128.04643477 5.21124597 -123.50390625 0.21875 C-92.04230898 -22.04432942 -31.56876376 -23.86763144 0 0 Z M-107.16015625 6.0390625 C-107.66150824 8.41128206 -107.66150824 8.41128206 -107.16015625 11.0390625 C-96.97473792 20.84228877 -79.51113158 21.26160219 -66.16015625 22.0390625 C-64.66935547 22.12994141 -64.66935547 22.12994141 -63.1484375 22.22265625 C-46.39112089 22.66986878 -27.05684573 21.04467893 -13.16015625 11.0390625 C-13.19135035 8.17171729 -13.19135035 8.17171729 -14.16015625 5.0390625 C-33.16028742 -9.85749004 -89.33943868 -11.78165507 -107.16015625 6.0390625 Z M-10.16015625 201.0390625 C-10.16015625 211.5990625 -10.16015625 222.1590625 -10.16015625 233.0390625 C0.39984375 233.0390625 10.95984375 233.0390625 21.83984375 233.0390625 C21.83984375 222.4790625 21.83984375 211.9190625 21.83984375 201.0390625 C11.27984375 201.0390625 0.71984375 201.0390625 -10.16015625 201.0390625 Z M47.83984375 201.0390625 C47.83984375 211.5990625 47.83984375 222.1590625 47.83984375 233.0390625 C58.06984375 233.0390625 68.29984375 233.0390625 78.83984375 233.0390625 C78.83984375 222.4790625 78.83984375 211.9190625 78.83984375 201.0390625 C68.60984375 201.0390625 58.37984375 201.0390625 47.83984375 201.0390625 Z M105.83984375 201.0390625 C105.83984375 211.5990625 105.83984375 222.1590625 105.83984375 233.0390625 C116.39984375 233.0390625 126.95984375 233.0390625 137.83984375 233.0390625 C137.83984375 222.4790625 137.83984375 211.9190625 137.83984375 201.0390625 C127.27984375 201.0390625 116.71984375 201.0390625 105.83984375 201.0390625 Z " fill="#006ED4" transform="translate(129.16015625,16.9609375)"/>
</svg>
