<?xml version="1.0" encoding="UTF-8"?>
<svg version="1.1" xmlns="http://www.w3.org/2000/svg" width="264" height="256">
<path d="M0 0 C87.12 0 174.24 0 264 0 C264 84.48 264 168.96 264 256 C176.88 256 89.76 256 0 256 C0 171.52 0 87.04 0 0 Z " fill="#F7F7F7" transform="translate(0,0)"/>
<path d="M0 0 C0.85755386 -0.00511093 1.71510773 -0.01022186 2.59864807 -0.01548767 C5.4273277 -0.02936266 8.25576308 -0.02842834 11.08447266 -0.02612305 C13.05595998 -0.03001138 15.02744647 -0.03434633 16.99893188 -0.03910828 C21.12968665 -0.04656617 25.26035594 -0.0462825 29.39111328 -0.04101562 C34.67594487 -0.03522431 39.96042561 -0.052146 45.2451992 -0.0753603 C49.31678298 -0.09011682 53.38828267 -0.09096667 57.45988846 -0.08785057 C59.40787068 -0.08836291 61.35585772 -0.09358414 63.30381393 -0.10366249 C66.0321992 -0.1160455 68.75990625 -0.10922385 71.48828125 -0.09765625 C72.28747482 -0.10529999 73.0866684 -0.11294373 73.91007996 -0.12081909 C80.24512076 -0.06167025 84.84352619 1.30001706 89.93603516 5.2746582 C92.61509262 8.5719597 94.47126009 11.88626003 96.43603516 15.6418457 C98.97334493 20.46666374 101.72046372 25.17376192 104.43603516 29.8996582 C106.42027549 33.35512015 108.39940622 36.81341011 110.37353516 40.2746582 C110.86321777 41.12640625 111.35290039 41.9781543 111.85742188 42.85571289 C112.3152002 43.66169922 112.77297852 44.46768555 113.24462891 45.2980957 C113.86035767 46.37583252 113.86035767 46.37583252 114.48852539 47.4753418 C115.37353516 49.2746582 115.37353516 49.2746582 115.37353516 51.2746582 C116.03353516 51.2746582 116.69353516 51.2746582 117.37353516 51.2746582 C117.78192627 52.00579834 118.19031738 52.73693848 118.61108398 53.49023438 C120.13682794 56.22088928 121.6632737 58.95115034 123.19018555 61.68115234 C124.17176111 63.4366301 125.15253688 65.19255498 126.13330078 66.94848633 C127.06625977 68.61621094 127.06625977 68.61621094 128.01806641 70.31762695 C128.58887939 71.33880615 129.15969238 72.35998535 129.74780273 73.41210938 C130.81147164 75.28499087 131.91182908 77.13761994 133.05175781 78.96508789 C135.74227685 83.66629035 135.12056179 89.06284448 134.37353516 94.2746582 C132.74618579 98.51991741 130.72591693 102.3890276 128.37353516 106.2746582 C127.71353516 106.2746582 127.05353516 106.2746582 126.37353516 106.2746582 C126.13376953 107.10868164 125.89400391 107.94270508 125.64697266 108.80200195 C124.17554146 112.8145858 122.21416657 116.19965742 119.99853516 119.8371582 C119.09357681 121.34809161 118.18999305 122.85984894 117.28759766 124.37231445 C116.81225586 125.16782715 116.33691406 125.96333984 115.84716797 126.78295898 C113.30367613 131.08363455 110.8420627 135.43067024 108.37353516 139.7746582 C104.56449942 146.45546935 100.7467036 153.13077439 96.87353516 159.7746582 C96.47650391 160.46237305 96.07947266 161.15008789 95.67041016 161.85864258 C91.60020161 168.80726915 88.08848896 173.38408939 80.37353516 176.2746582 C77.37492502 176.79804282 74.46108906 176.82334619 71.42236328 176.79223633 C70.56597763 176.79924561 69.70959198 176.80625488 68.82725525 176.81347656 C66.01942734 176.83096425 63.21262185 176.81946689 60.40478516 176.8059082 C58.43998015 176.80860577 56.47517644 176.8124904 54.51037598 176.81750488 C50.40164421 176.82338744 46.29326137 176.81487705 42.18457031 176.79614258 C36.9322863 176.77335389 31.68082003 176.78648364 26.42856598 176.81043243 C22.3740631 176.82492401 18.31975236 176.82026902 14.26524353 176.80992126 C12.32925824 176.80726326 10.39325519 176.81049095 8.45729065 176.81983948 C5.74596304 176.83006058 3.03593823 176.814427 0.32470703 176.79223633 C-0.46617813 176.80033325 -1.25706329 176.80843018 -2.07191467 176.81677246 C-8.55828119 176.71900142 -14.0594427 174.91079248 -18.65771484 170.1887207 C-19.14240234 169.43333008 -19.62708984 168.67793945 -20.12646484 167.8996582 C-20.69494141 167.02051758 -21.26341797 166.14137695 -21.84912109 165.2355957 C-24.85573777 160.22677056 -27.77238344 155.17665159 -30.61914062 150.07592773 C-32.23009926 147.1952557 -33.86572656 144.32881423 -35.50146484 141.4621582 C-35.82912842 140.88763916 -36.15679199 140.31312012 -36.49438477 139.72119141 C-39.08283936 135.19497624 -41.72429015 130.70125989 -44.37646484 126.2121582 C-48.34477858 119.49150082 -52.25118848 112.73688411 -56.12646484 105.9621582 C-56.64305664 105.06037842 -57.15964844 104.15859863 -57.69189453 103.22949219 C-58.17561523 102.38201416 -58.65933594 101.53453613 -59.15771484 100.66137695 C-59.80063477 99.53542114 -59.80063477 99.53542114 -60.45654297 98.38671875 C-63.12414749 93.57089097 -64.68653591 89.883147 -63.62646484 84.2746582 C-61.91174025 80.12641782 -59.73463315 76.28828389 -57.50146484 72.3996582 C-56.93169922 71.37485352 -56.36193359 70.35004883 -55.77490234 69.29418945 C-52.61008672 63.63348515 -49.32087232 58.05355706 -45.96630859 52.50366211 C-44.15807193 49.49542582 -42.42050449 46.45273234 -40.68896484 43.3996582 C-39.99920836 42.18852263 -39.30909847 40.97758826 -38.61865234 39.7668457 C-38.28188477 39.17613281 -37.94511719 38.58541992 -37.59814453 37.97680664 C-34.97804195 33.3870189 -32.31829356 28.82273816 -29.62646484 24.2746582 C-29.19897949 23.54569336 -28.77149414 22.81672852 -28.33105469 22.06567383 C-26.8981442 19.62908165 -25.45111354 17.2013231 -24.00146484 14.7746582 C-23.54602295 13.99638672 -23.09058105 13.21811523 -22.62133789 12.41625977 C-16.92470848 2.95871872 -11.00073491 -0.03392926 0 0 Z " fill="#4384F3" transform="translate(95.62646484375,38.725341796875)"/>
<path d="M0 0 C1.5 1.375 1.5 1.375 3 3 C3 3.66 3 4.32 3 5 C3.66 5 4.32 5 5 5 C6.296875 6.35546875 6.296875 6.35546875 7.75 8.1875 C9.80390044 10.68658083 11.83842136 12.80487614 14.375 14.8125 C15.24125 15.534375 16.1075 16.25625 17 17 C17 17.66 17 18.32 17 19 C17.66 19 18.32 19 19 19 C21.625 21.375 21.625 21.375 24 24 C24 24.66 24 25.32 24 26 C24.53463867 26.20866699 25.06927734 26.41733398 25.62011719 26.63232422 C28.93852906 28.53935575 31.41851305 31.17310864 34.078125 33.8828125 C34.64956238 34.45707977 35.22099976 35.03134705 35.80975342 35.62301636 C37.62792945 37.4523581 39.43901492 39.28854193 41.25 41.125 C42.48391329 42.36894774 43.71828322 43.6124427 44.953125 44.85546875 C47.97406743 47.89842367 50.98867092 50.94753254 54 54 C52.82795254 57.03326536 51.58743747 59.91793527 50.00390625 62.7578125 C49.61565674 63.45648438 49.22740723 64.15515625 48.82739258 64.875 C48.40997803 65.6175 47.99256348 66.36 47.5625 67.125 C46.90640747 68.29675781 46.90640747 68.29675781 46.23706055 69.4921875 C44.82991538 71.99776869 43.41600485 74.49941612 42 77 C41.52755859 77.8362793 41.05511719 78.67255859 40.56835938 79.53417969 C25.29868624 106.49110606 25.29868624 106.49110606 18.1171875 109.453125 C13.66219696 110.60386056 9.20087375 110.88279039 4.88671875 109.15234375 C2.50896328 107.70009144 1.01430708 105.76137918 -0.6953125 103.58984375 C-2.1708022 101.73285361 -2.1708022 101.73285361 -4.8125 99.25 C-7 97 -7 97 -7 95 C-7.928125 94.62875 -7.928125 94.62875 -8.875 94.25 C-11.35068687 92.79371361 -11.95125002 91.62187494 -13 89 C-13.66 89 -14.32 89 -15 89 C-15 88.34 -15 87.68 -15 87 C-15.66 87 -16.32 87 -17 87 C-17 86.34 -17 85.68 -17 85 C-17.66 85 -18.32 85 -19 85 C-19 84.34 -19 83.68 -19 83 C-19.66 83 -20.32 83 -21 83 C-21 82.34 -21 81.68 -21 81 C-21.66 81 -22.32 81 -23 81 C-23 80.34 -23 79.68 -23 79 C-23.66 79 -24.32 79 -25 79 C-26.26953125 77.70703125 -26.26953125 77.70703125 -27.8125 75.8125 C-31.29977289 71.70461075 -35.00643018 67.8717149 -38.8125 64.0625 C-39.67548706 63.19298706 -39.67548706 63.19298706 -40.5559082 62.3059082 C-43.49726058 59.28349447 -43.49726058 59.28349447 -47 57 C-47 56.34 -47 55.68 -47 55 C-47.66 55 -48.32 55 -49 55 C-49 54.34 -49 53.68 -49 53 C-49.99 52.67 -50.98 52.34 -52 52 C-51.01 51.505 -51.01 51.505 -50 51 C-48.16015625 51.7421875 -48.16015625 51.7421875 -46.0625 52.875 C-37.9412715 57.21644178 -26.91312728 57.61824884 -17.98828125 55.17578125 C-15.90110863 54.2225564 -13.97675965 53.15981187 -12 52 C-10.34197548 51.31212144 -8.6768159 50.64071107 -7 50 C-6.10796875 50.95003906 -5.2159375 51.90007812 -4.296875 52.87890625 C-3.11525436 54.1074166 -1.93292571 55.33524624 -0.75 56.5625 C0.12978516 57.50512695 0.12978516 57.50512695 1.02734375 58.46679688 C1.60097656 59.05654297 2.17460937 59.64628906 2.765625 60.25390625 C3.28930664 60.80377197 3.81298828 61.3536377 4.35253906 61.92016602 C5.96167536 63.20229172 5.96167536 63.20229172 8.07714844 62.92163086 C10.54771177 61.73747944 11.03041264 60.50476735 12 58 C11.04996094 57.10796875 10.09992188 56.2159375 9.12109375 55.296875 C7.8925834 54.11525436 6.66475376 52.93292571 5.4375 51.75 C4.80908203 51.16347656 4.18066406 50.57695312 3.53320312 49.97265625 C2.94345703 49.39902344 2.35371094 48.82539063 1.74609375 48.234375 C1.19622803 47.71069336 0.6463623 47.18701172 0.07983398 46.64746094 C-1 45 -1 45 -0.73022461 42.95239258 C0.14976255 40.59958172 1.04645337 38.26176991 2 35.9375 C5.71020295 26.86659941 6.54791807 18.32034648 3.0625 8.9375 C2.70285156 8.08027344 2.34320313 7.22304687 1.97265625 6.33984375 C1.095477 4.22968163 0.48866562 2.22728646 0 0 Z " fill="#3D79E0" transform="translate(160,105)"/>
<path d="M0 0 C10.72015622 -0.6218518 18.37833295 1.5164643 26.93359375 8.36328125 C33.83751621 14.75622261 38.8134988 22.64878335 39.609375 32.16015625 C39.81788146 41.19177836 38.43795712 48.71220495 33.37109375 56.3125 C33.69875468 59.51022077 34.82236065 61.12846373 37.09375 63.328125 C37.63193359 63.85664063 38.17011719 64.38515625 38.72460938 64.9296875 C39.28857422 65.46851563 39.85253906 66.00734375 40.43359375 66.5625 C41.00142578 67.11679688 41.56925781 67.67109375 42.15429688 68.2421875 C43.55321844 69.60584214 44.96128489 70.96010417 46.37109375 72.3125 C45.2193602 74.78050047 44.3232581 76.36033565 42.37109375 78.3125 C39.18194307 77.97517052 37.54862981 76.85452093 35.35546875 74.58984375 C34.82695312 74.05166016 34.2984375 73.51347656 33.75390625 72.95898438 C33.21507812 72.39501953 32.67625 71.83105469 32.12109375 71.25 C31.28964844 70.39825195 31.28964844 70.39825195 30.44140625 69.52929688 C29.07775161 68.13037531 27.72348958 66.72230886 26.37109375 65.3125 C24.00308043 66.21731748 21.73644106 67.09814205 19.546875 68.3828125 C11.42005383 72.98289996 0.45165722 72.72212308 -8.4765625 70.65234375 C-14.06150816 68.37699552 -19.29444549 64.47276258 -23.62890625 60.3125 C-23.62890625 59.6525 -23.62890625 58.9925 -23.62890625 58.3125 C-24.28890625 58.3125 -24.94890625 58.3125 -25.62890625 58.3125 C-26.42577231 56.77351439 -27.21613766 55.23116216 -28.00390625 53.6875 C-28.44476563 52.82898438 -28.885625 51.97046875 -29.33984375 51.0859375 C-33.51939913 42.09356078 -34.17122272 32.9755551 -31.00390625 23.5 C-26.91622229 13.74047775 -20.66844036 7.7649174 -11.62890625 2.3125 C-7.50656999 0.63561745 -4.40980448 0.37974635 0 0 Z " fill="#3E7AE2" transform="translate(126.62890625,90.6875)"/>
<path d="M0 0 C10.72015622 -0.6218518 18.37833295 1.5164643 26.93359375 8.36328125 C33.83751621 14.75622261 38.8134988 22.64878335 39.609375 32.16015625 C39.81788146 41.19177836 38.43795712 48.71220495 33.37109375 56.3125 C33.69875468 59.51022077 34.82236065 61.12846373 37.09375 63.328125 C37.63193359 63.85664063 38.17011719 64.38515625 38.72460938 64.9296875 C39.28857422 65.46851563 39.85253906 66.00734375 40.43359375 66.5625 C41.00142578 67.11679688 41.56925781 67.67109375 42.15429688 68.2421875 C43.55321844 69.60584214 44.96128489 70.96010417 46.37109375 72.3125 C45.2193602 74.78050047 44.3232581 76.36033565 42.37109375 78.3125 C39.18194307 77.97517052 37.54862981 76.85452093 35.35546875 74.58984375 C34.82695312 74.05166016 34.2984375 73.51347656 33.75390625 72.95898438 C33.21507812 72.39501953 32.67625 71.83105469 32.12109375 71.25 C31.28964844 70.39825195 31.28964844 70.39825195 30.44140625 69.52929688 C29.07775161 68.13037531 27.72348958 66.72230886 26.37109375 65.3125 C24.00308043 66.21731748 21.73644106 67.09814205 19.546875 68.3828125 C11.42005383 72.98289996 0.45165722 72.72212308 -8.4765625 70.65234375 C-14.06150816 68.37699552 -19.29444549 64.47276258 -23.62890625 60.3125 C-23.62890625 59.6525 -23.62890625 58.9925 -23.62890625 58.3125 C-24.28890625 58.3125 -24.94890625 58.3125 -25.62890625 58.3125 C-26.42577231 56.77351439 -27.21613766 55.23116216 -28.00390625 53.6875 C-28.44476563 52.82898438 -28.885625 51.97046875 -29.33984375 51.0859375 C-33.51939913 42.09356078 -34.17122272 32.9755551 -31.00390625 23.5 C-26.91622229 13.74047775 -20.66844036 7.7649174 -11.62890625 2.3125 C-7.50656999 0.63561745 -4.40980448 0.37974635 0 0 Z M-14.62890625 15.3125 C-19.38396177 19.92283643 -23.14309918 24.89565696 -24.09765625 31.609375 C-24.19016104 41.83115446 -22.2361134 48.73564571 -15.19140625 56.25 C-8.95286603 61.92747237 -2.93574773 63.30065001 5.37109375 63.3125 C13.05065173 62.56493241 19.50442201 58.60117833 24.68359375 53 C29.69336962 46.63881321 31.02113315 40.39505194 30.77734375 32.33984375 C29.70170242 24.32424728 25.57155941 18.65603621 19.33984375 13.71484375 C8.16015663 5.75153487 -4.28877117 6.77231436 -14.62890625 15.3125 Z " fill="#F9FAFD" transform="translate(126.62890625,90.6875)"/>
<path d="M0 0 C14.1577264 -1.36196655 14.1577264 -1.36196655 18.1875 1.6171875 C19.75214222 4.00666828 20.88197843 6.37226903 22 9 C22.98520245 10.84132758 23.98559999 12.67459491 25 14.5 C25.49757813 15.41910156 25.99515625 16.33820313 26.5078125 17.28515625 C31.51882978 26.61774283 31.51882978 26.61774283 40.16796875 32.24609375 C42 33 42 33 45 35 C45.41394695 38.36676852 45.13087567 41.59723255 45 45 C40.05 45 35.1 45 30 45 C30 40.05 30 35.1 30 30 C25.05 30 20.1 30 15 30 C15 25.05 15 20.1 15 15 C10.05 15 5.1 15 0 15 C0 10.05 0 5.1 0 0 Z " fill="#EDEDEE" transform="translate(45,181)"/>
<path d="M0 0 C4.95 0 9.9 0 15 0 C15 2.64 15 5.28 15 8 C14.32453125 8.23074219 13.6490625 8.46148437 12.953125 8.69921875 C12.06109375 9.02535156 11.1690625 9.35148437 10.25 9.6875 C9.36828125 10.00074219 8.4865625 10.31398438 7.578125 10.63671875 C2.2835418 13.43643017 -0.29379495 18.91803522 -3.25 23.9375 C-3.63406006 24.58340088 -4.01812012 25.22930176 -4.41381836 25.89477539 C-8.3568405 32.55049337 -12.18437597 39.2706267 -16 46 C-22.93 45.505 -22.93 45.505 -30 45 C-30 40.05 -30 35.1 -30 30 C-25.05 30 -20.1 30 -15 30 C-15 25.05 -15 20.1 -15 15 C-10.05 15 -5.1 15 0 15 C0 10.05 0 5.1 0 0 Z " fill="#ECEDEE" transform="translate(75,31)"/>
<path d="M0 0 C3.3 0 6.6 0 10 0 C10.33 0.66 10.66 1.32 11 2 C9.39997466 5.09413884 7.69241363 8.08180414 5.89257812 11.0625 C3.08560347 15.99327029 2.37273082 19.32004883 3 25 C4.08840579 27.96302364 4.08840579 27.96302364 5.75 30.5625 C6.29398438 31.490625 6.83796875 32.41875 7.3984375 33.375 C7.92695312 34.24125 8.45546875 35.1075 9 36 C13 42.78787879 13 42.78787879 13 45 C8.71 45 4.42 45 0 45 C0 40.05 0 35.1 0 30 C-4.95 30 -9.9 30 -15 30 C-15 25.05 -15 20.1 -15 15 C-10.05 15 -5.1 15 0 15 C0 10.05 0 5.1 0 0 Z " fill="#ECEDEE" transform="translate(30,106)"/>
<path d="M0 0 C4.95 0 9.9 0 15 0 C15 4.95 15 9.9 15 15 C19.95 15 24.9 15 30 15 C30 19.95 30 24.9 30 30 C26.94010417 30.22786458 23.88020833 30.45572917 20.8203125 30.68359375 C18.05271029 30.83001703 18.05271029 30.83001703 16 32 C14.70043409 29.963006 13.4103739 27.92092385 12.125 25.875 C11.76019531 25.30523437 11.39539063 24.73546875 11.01953125 24.1484375 C8.75196812 20.5203365 7.31817636 17.04996265 6 13 C4.13252737 11.60761953 4.13252737 11.60761953 2 11 C1.01 10.67 0.02 10.34 -1 10 C-0.67 6.7 -0.34 3.4 0 0 Z " fill="#FEFEFE" transform="translate(180,31)"/>
<path d="M0 0 C9.01840491 -1.12730061 9.01840491 -1.12730061 14 0 C17.78408711 3.79591238 19.76879159 8.20030749 22 13 C23.1127545 15.04836647 24.23668009 17.09072972 25.375 19.125 C25.83648437 19.99382812 26.29796875 20.86265625 26.7734375 21.7578125 C28.0521184 24.17277937 28.0521184 24.17277937 30 27 C30 27.99 30 28.98 30 30 C25.05 30 20.1 30 15 30 C15 25.05 15 20.1 15 15 C10.05 15 5.1 15 0 15 C0 10.05 0 5.1 0 0 Z " fill="#FFFFFF" transform="translate(30,151)"/>
<path d="M0 0 C4.29 0 8.58 0 13 0 C13 4.95 13 9.9 13 15 C17.95 15 22.9 15 28 15 C28 19.95 28 24.9 28 30 C17.375 30.125 17.375 30.125 14 29 C12.9296875 27.2421875 12.9296875 27.2421875 11.875 24.875 C9.29328123 19.37792495 6.20747568 14.29288787 2.94677734 9.17919922 C0.81386905 5.74289711 0 4.15254602 0 0 Z " fill="#ECEDEE" transform="translate(197,61)"/>
<path d="M0 0 C4.29 0 8.58 0 13 0 C12.19231774 3.23072906 11.49134528 5.19397221 9.92578125 8.01171875 C9.50796387 8.76598145 9.09014648 9.52024414 8.65966797 10.29736328 C8.21510254 11.0861084 7.77053711 11.87485352 7.3125 12.6875 C6.63791748 13.8938208 6.63791748 13.8938208 5.94970703 15.12451172 C2.86543448 20.59203545 -0.38533308 25.86336806 -4 31 C-7.63 30.67 -11.26 30.34 -15 30 C-15 25.05 -15 20.1 -15 15 C-10.05 15 -5.1 15 0 15 C0 10.05 0 5.1 0 0 Z " fill="#FEFEFE" transform="translate(45,76)"/>
<path d="M0 0 C2.31 0 4.62 0 7 0 C7 4.95 7 9.9 7 15 C2.05 15 -2.9 15 -8 15 C-8 19.95 -8 24.9 -8 30 C-10.97 30 -13.94 30 -17 30 C-16.42413217 25.49468113 -14.54541619 22.08372202 -12.25 18.25 C-11.52561574 17.01327021 -10.80165782 15.77629061 -10.078125 14.5390625 C-9.72427734 13.93868164 -9.37042969 13.33830078 -9.00585938 12.71972656 C-7.63426366 10.37469738 -6.31353031 8.0029428 -5 5.625 C-4.608125 4.91601562 -4.21625 4.20703125 -3.8125 3.4765625 C-3.544375 2.98929688 -3.27625 2.50203125 -3 2 C-2.34 2 -1.68 2 -1 2 C-0.67 1.34 -0.34 0.68 0 0 Z " fill="#ECEDEF" transform="translate(203,181)"/>
<path d="M0 0 C4.95 0 9.9 0 15 0 C15 4.95 15 9.9 15 15 C10.05 15 5.1 15 0 15 C0 10.05 0 5.1 0 0 Z " fill="#FFFFFF" transform="translate(240,241)"/>
<path d="M0 0 C4.95 0 9.9 0 15 0 C15 4.95 15 9.9 15 15 C10.05 15 5.1 15 0 15 C0 10.05 0 5.1 0 0 Z " fill="#EEEEEE" transform="translate(225,241)"/>
<path d="M0 0 C4.95 0 9.9 0 15 0 C15 4.95 15 9.9 15 15 C10.05 15 5.1 15 0 15 C0 10.05 0 5.1 0 0 Z " fill="#FFFFFF" transform="translate(210,241)"/>
<path d="M0 0 C4.95 0 9.9 0 15 0 C15 4.95 15 9.9 15 15 C10.05 15 5.1 15 0 15 C0 10.05 0 5.1 0 0 Z " fill="#FFFFFF" transform="translate(180,241)"/>
<path d="M0 0 C4.95 0 9.9 0 15 0 C15 4.95 15 9.9 15 15 C10.05 15 5.1 15 0 15 C0 10.05 0 5.1 0 0 Z " fill="#EEEEEE" transform="translate(165,241)"/>
<path d="M0 0 C4.95 0 9.9 0 15 0 C15 4.95 15 9.9 15 15 C10.05 15 5.1 15 0 15 C0 10.05 0 5.1 0 0 Z " fill="#FFFFFF" transform="translate(150,241)"/>
<path d="M0 0 C4.95 0 9.9 0 15 0 C15 4.95 15 9.9 15 15 C10.05 15 5.1 15 0 15 C0 10.05 0 5.1 0 0 Z " fill="#EEEEEE" transform="translate(135,241)"/>
<path d="M0 0 C4.95 0 9.9 0 15 0 C15 4.95 15 9.9 15 15 C10.05 15 5.1 15 0 15 C0 10.05 0 5.1 0 0 Z " fill="#FFFFFF" transform="translate(120,241)"/>
<path d="M0 0 C4.95 0 9.9 0 15 0 C15 4.95 15 9.9 15 15 C10.05 15 5.1 15 0 15 C0 10.05 0 5.1 0 0 Z " fill="#EEEEEE" transform="translate(105,241)"/>
<path d="M0 0 C4.95 0 9.9 0 15 0 C15 4.95 15 9.9 15 15 C10.05 15 5.1 15 0 15 C0 10.05 0 5.1 0 0 Z " fill="#FFFFFF" transform="translate(90,241)"/>
<path d="M0 0 C4.95 0 9.9 0 15 0 C15 4.95 15 9.9 15 15 C10.05 15 5.1 15 0 15 C0 10.05 0 5.1 0 0 Z " fill="#EEEEEE" transform="translate(75,241)"/>
<path d="M0 0 C4.95 0 9.9 0 15 0 C15 4.95 15 9.9 15 15 C10.05 15 5.1 15 0 15 C0 10.05 0 5.1 0 0 Z " fill="#FFFFFF" transform="translate(60,241)"/>
<path d="M0 0 C4.95 0 9.9 0 15 0 C15 4.95 15 9.9 15 15 C10.05 15 5.1 15 0 15 C0 10.05 0 5.1 0 0 Z " fill="#EEEEEE" transform="translate(45,241)"/>
<path d="M0 0 C4.95 0 9.9 0 15 0 C15 4.95 15 9.9 15 15 C10.05 15 5.1 15 0 15 C0 10.05 0 5.1 0 0 Z " fill="#FFFFFF" transform="translate(30,241)"/>
<path d="M0 0 C4.95 0 9.9 0 15 0 C15 4.95 15 9.9 15 15 C10.05 15 5.1 15 0 15 C0 10.05 0 5.1 0 0 Z " fill="#EEEEEE" transform="translate(15,241)"/>
<path d="M0 0 C4.95 0 9.9 0 15 0 C15 4.95 15 9.9 15 15 C10.05 15 5.1 15 0 15 C0 10.05 0 5.1 0 0 Z " fill="#FFFFFF" transform="translate(0,241)"/>
<path d="M0 0 C4.95 0 9.9 0 15 0 C15 4.95 15 9.9 15 15 C10.05 15 5.1 15 0 15 C0 10.05 0 5.1 0 0 Z " fill="#EEEEEE" transform="translate(240,226)"/>
<path d="M0 0 C4.95 0 9.9 0 15 0 C15 4.95 15 9.9 15 15 C10.05 15 5.1 15 0 15 C0 10.05 0 5.1 0 0 Z " fill="#FFFFFF" transform="translate(225,226)"/>
<path d="M0 0 C4.95 0 9.9 0 15 0 C15 4.95 15 9.9 15 15 C10.05 15 5.1 15 0 15 C0 10.05 0 5.1 0 0 Z " fill="#EEEEEE" transform="translate(210,226)"/>
<path d="M0 0 C4.95 0 9.9 0 15 0 C15 4.95 15 9.9 15 15 C10.05 15 5.1 15 0 15 C0 10.05 0 5.1 0 0 Z " fill="#FFFFFF" transform="translate(195,226)"/>
<path d="M0 0 C4.95 0 9.9 0 15 0 C15 4.95 15 9.9 15 15 C10.05 15 5.1 15 0 15 C0 10.05 0 5.1 0 0 Z " fill="#FFFFFF" transform="translate(165,226)"/>
<path d="M0 0 C4.95 0 9.9 0 15 0 C15 4.95 15 9.9 15 15 C10.05 15 5.1 15 0 15 C0 10.05 0 5.1 0 0 Z " fill="#EEEEEE" transform="translate(150,226)"/>
<path d="M0 0 C4.95 0 9.9 0 15 0 C15 4.95 15 9.9 15 15 C10.05 15 5.1 15 0 15 C0 10.05 0 5.1 0 0 Z " fill="#FFFFFF" transform="translate(135,226)"/>
<path d="M0 0 C4.95 0 9.9 0 15 0 C15 4.95 15 9.9 15 15 C10.05 15 5.1 15 0 15 C0 10.05 0 5.1 0 0 Z " fill="#EEEEEE" transform="translate(120,226)"/>
<path d="M0 0 C4.95 0 9.9 0 15 0 C15 4.95 15 9.9 15 15 C10.05 15 5.1 15 0 15 C0 10.05 0 5.1 0 0 Z " fill="#FFFFFF" transform="translate(105,226)"/>
<path d="M0 0 C4.95 0 9.9 0 15 0 C15 4.95 15 9.9 15 15 C10.05 15 5.1 15 0 15 C0 10.05 0 5.1 0 0 Z " fill="#EEEEEE" transform="translate(90,226)"/>
<path d="M0 0 C4.95 0 9.9 0 15 0 C15 4.95 15 9.9 15 15 C10.05 15 5.1 15 0 15 C0 10.05 0 5.1 0 0 Z " fill="#FFFFFF" transform="translate(75,226)"/>
<path d="M0 0 C4.95 0 9.9 0 15 0 C15 4.95 15 9.9 15 15 C10.05 15 5.1 15 0 15 C0 10.05 0 5.1 0 0 Z " fill="#EEEEEE" transform="translate(60,226)"/>
<path d="M0 0 C4.95 0 9.9 0 15 0 C15 4.95 15 9.9 15 15 C10.05 15 5.1 15 0 15 C0 10.05 0 5.1 0 0 Z " fill="#FFFFFF" transform="translate(45,226)"/>
<path d="M0 0 C4.95 0 9.9 0 15 0 C15 4.95 15 9.9 15 15 C10.05 15 5.1 15 0 15 C0 10.05 0 5.1 0 0 Z " fill="#EEEEEE" transform="translate(30,226)"/>
<path d="M0 0 C4.95 0 9.9 0 15 0 C15 4.95 15 9.9 15 15 C10.05 15 5.1 15 0 15 C0 10.05 0 5.1 0 0 Z " fill="#FFFFFF" transform="translate(15,226)"/>
<path d="M0 0 C4.95 0 9.9 0 15 0 C15 4.95 15 9.9 15 15 C10.05 15 5.1 15 0 15 C0 10.05 0 5.1 0 0 Z " fill="#EEEEEE" transform="translate(0,226)"/>
<path d="M0 0 C4.95 0 9.9 0 15 0 C15 4.95 15 9.9 15 15 C10.05 15 5.1 15 0 15 C0 10.05 0 5.1 0 0 Z " fill="#FFFFFF" transform="translate(240,211)"/>
<path d="M0 0 C4.95 0 9.9 0 15 0 C15 4.95 15 9.9 15 15 C10.05 15 5.1 15 0 15 C0 10.05 0 5.1 0 0 Z " fill="#EEEEEE" transform="translate(225,211)"/>
<path d="M0 0 C4.95 0 9.9 0 15 0 C15 4.95 15 9.9 15 15 C10.05 15 5.1 15 0 15 C0 10.05 0 5.1 0 0 Z " fill="#FFFFFF" transform="translate(210,211)"/>
<path d="M0 0 C4.95 0 9.9 0 15 0 C15 4.95 15 9.9 15 15 C10.05 15 5.1 15 0 15 C0 10.05 0 5.1 0 0 Z " fill="#EEEEEE" transform="translate(195,211)"/>
<path d="M0 0 C4.95 0 9.9 0 15 0 C15 4.95 15 9.9 15 15 C10.05 15 5.1 15 0 15 C0 10.05 0 5.1 0 0 Z " fill="#FFFFFF" transform="translate(60,211)"/>
<path d="M0 0 C4.95 0 9.9 0 15 0 C15 4.95 15 9.9 15 15 C10.05 15 5.1 15 0 15 C0 10.05 0 5.1 0 0 Z " fill="#EEEEEE" transform="translate(45,211)"/>
<path d="M0 0 C4.95 0 9.9 0 15 0 C15 4.95 15 9.9 15 15 C10.05 15 5.1 15 0 15 C0 10.05 0 5.1 0 0 Z " fill="#FFFFFF" transform="translate(30,211)"/>
<path d="M0 0 C4.95 0 9.9 0 15 0 C15 4.95 15 9.9 15 15 C10.05 15 5.1 15 0 15 C0 10.05 0 5.1 0 0 Z " fill="#EEEEEE" transform="translate(15,211)"/>
<path d="M0 0 C4.95 0 9.9 0 15 0 C15 4.95 15 9.9 15 15 C10.05 15 5.1 15 0 15 C0 10.05 0 5.1 0 0 Z " fill="#FFFFFF" transform="translate(0,211)"/>
<path d="M0 0 C4.95 0 9.9 0 15 0 C15 4.95 15 9.9 15 15 C10.05 15 5.1 15 0 15 C0 10.05 0 5.1 0 0 Z " fill="#EEEEEE" transform="translate(240,196)"/>
<path d="M0 0 C4.95 0 9.9 0 15 0 C15 4.95 15 9.9 15 15 C10.05 15 5.1 15 0 15 C0 10.05 0 5.1 0 0 Z " fill="#FFFFFF" transform="translate(225,196)"/>
<path d="M0 0 C4.95 0 9.9 0 15 0 C15 4.95 15 9.9 15 15 C10.05 15 5.1 15 0 15 C0 10.05 0 5.1 0 0 Z " fill="#FFFFFF" transform="translate(195,196)"/>
<path d="M0 0 C4.95 0 9.9 0 15 0 C15 4.95 15 9.9 15 15 C10.05 15 5.1 15 0 15 C0 10.05 0 5.1 0 0 Z " fill="#FFFFFF" transform="translate(45,196)"/>
<path d="M0 0 C4.95 0 9.9 0 15 0 C15 4.95 15 9.9 15 15 C10.05 15 5.1 15 0 15 C0 10.05 0 5.1 0 0 Z " fill="#EEEEEE" transform="translate(30,196)"/>
<path d="M0 0 C4.95 0 9.9 0 15 0 C15 4.95 15 9.9 15 15 C10.05 15 5.1 15 0 15 C0 10.05 0 5.1 0 0 Z " fill="#FFFFFF" transform="translate(15,196)"/>
<path d="M0 0 C4.95 0 9.9 0 15 0 C15 4.95 15 9.9 15 15 C10.05 15 5.1 15 0 15 C0 10.05 0 5.1 0 0 Z " fill="#EEEEEE" transform="translate(0,196)"/>
<path d="M0 0 C4.95 0 9.9 0 15 0 C15 4.95 15 9.9 15 15 C10.05 15 5.1 15 0 15 C0 10.05 0 5.1 0 0 Z " fill="#FFFFFF" transform="translate(240,181)"/>
<path d="M0 0 C4.95 0 9.9 0 15 0 C15 4.95 15 9.9 15 15 C10.05 15 5.1 15 0 15 C0 10.05 0 5.1 0 0 Z " fill="#EEEEEE" transform="translate(225,181)"/>
<path d="M0 0 C4.95 0 9.9 0 15 0 C15 4.95 15 9.9 15 15 C10.05 15 5.1 15 0 15 C0 10.05 0 5.1 0 0 Z " fill="#FFFFFF" transform="translate(210,181)"/>
<path d="M0 0 C4.95 0 9.9 0 15 0 C15 4.95 15 9.9 15 15 C10.05 15 5.1 15 0 15 C0 10.05 0 5.1 0 0 Z " fill="#FFFFFF" transform="translate(30,181)"/>
<path d="M0 0 C4.95 0 9.9 0 15 0 C15 4.95 15 9.9 15 15 C10.05 15 5.1 15 0 15 C0 10.05 0 5.1 0 0 Z " fill="#EEEEEE" transform="translate(15,181)"/>
<path d="M0 0 C4.95 0 9.9 0 15 0 C15 4.95 15 9.9 15 15 C10.05 15 5.1 15 0 15 C0 10.05 0 5.1 0 0 Z " fill="#FFFFFF" transform="translate(0,181)"/>
<path d="M0 0 C4.95 0 9.9 0 15 0 C15 4.95 15 9.9 15 15 C10.05 15 5.1 15 0 15 C0 10.05 0 5.1 0 0 Z " fill="#EEEEEE" transform="translate(240,166)"/>
<path d="M0 0 C4.95 0 9.9 0 15 0 C15 4.95 15 9.9 15 15 C10.05 15 5.1 15 0 15 C0 10.05 0 5.1 0 0 Z " fill="#FFFFFF" transform="translate(225,166)"/>
<path d="M0 0 C4.95 0 9.9 0 15 0 C15 4.95 15 9.9 15 15 C10.05 15 5.1 15 0 15 C0 10.05 0 5.1 0 0 Z " fill="#EEEEEE" transform="translate(30,166)"/>
<path d="M0 0 C4.95 0 9.9 0 15 0 C15 4.95 15 9.9 15 15 C10.05 15 5.1 15 0 15 C0 10.05 0 5.1 0 0 Z " fill="#FFFFFF" transform="translate(15,166)"/>
<path d="M0 0 C4.95 0 9.9 0 15 0 C15 4.95 15 9.9 15 15 C10.05 15 5.1 15 0 15 C0 10.05 0 5.1 0 0 Z " fill="#EEEEEE" transform="translate(0,166)"/>
<path d="M0 0 C4.95 0 9.9 0 15 0 C15 4.95 15 9.9 15 15 C10.05 15 5.1 15 0 15 C0 10.05 0 5.1 0 0 Z " fill="#FFFFFF" transform="translate(240,151)"/>
<path d="M0 0 C4.95 0 9.9 0 15 0 C15 4.95 15 9.9 15 15 C10.05 15 5.1 15 0 15 C0 10.05 0 5.1 0 0 Z " fill="#EEEEEE" transform="translate(225,151)"/>
<path d="M0 0 C4.95 0 9.9 0 15 0 C15 4.95 15 9.9 15 15 C10.05 15 5.1 15 0 15 C0 10.05 0 5.1 0 0 Z " fill="#EEEEEE" transform="translate(15,151)"/>
<path d="M0 0 C4.95 0 9.9 0 15 0 C15 4.95 15 9.9 15 15 C10.05 15 5.1 15 0 15 C0 10.05 0 5.1 0 0 Z " fill="#FFFFFF" transform="translate(0,151)"/>
<path d="M0 0 C4.95 0 9.9 0 15 0 C15 4.95 15 9.9 15 15 C10.05 15 5.1 15 0 15 C0 10.05 0 5.1 0 0 Z " fill="#EEEEEE" transform="translate(240,136)"/>
<path d="M0 0 C4.95 0 9.9 0 15 0 C15 4.95 15 9.9 15 15 C10.05 15 5.1 15 0 15 C0 10.05 0 5.1 0 0 Z " fill="#FFFFFF" transform="translate(15,136)"/>
<path d="M0 0 C4.95 0 9.9 0 15 0 C15 4.95 15 9.9 15 15 C10.05 15 5.1 15 0 15 C0 10.05 0 5.1 0 0 Z " fill="#EEEEEE" transform="translate(0,136)"/>
<path d="M0 0 C4.95 0 9.9 0 15 0 C15 4.95 15 9.9 15 15 C10.05 15 5.1 15 0 15 C0 10.05 0 5.1 0 0 Z " fill="#FFFFFF" transform="translate(240,121)"/>
<path d="M0 0 C4.95 0 9.9 0 15 0 C15 4.95 15 9.9 15 15 C10.05 15 5.1 15 0 15 C0 10.05 0 5.1 0 0 Z " fill="#FFFFFF" transform="translate(0,121)"/>
<path d="M0 0 C4.95 0 9.9 0 15 0 C15 4.95 15 9.9 15 15 C10.05 15 5.1 15 0 15 C0 10.05 0 5.1 0 0 Z " fill="#EEEEEE" transform="translate(240,106)"/>
<path d="M0 0 C4.95 0 9.9 0 15 0 C15 4.95 15 9.9 15 15 C10.05 15 5.1 15 0 15 C0 10.05 0 5.1 0 0 Z " fill="#FFFFFF" transform="translate(15,106)"/>
<path d="M0 0 C4.95 0 9.9 0 15 0 C15 4.95 15 9.9 15 15 C10.05 15 5.1 15 0 15 C0 10.05 0 5.1 0 0 Z " fill="#EEEEEE" transform="translate(0,106)"/>
<path d="M0 0 C4.95 0 9.9 0 15 0 C15 4.95 15 9.9 15 15 C10.05 15 5.1 15 0 15 C0 10.05 0 5.1 0 0 Z " fill="#FFFFFF" transform="translate(240,91)"/>
<path d="M0 0 C4.95 0 9.9 0 15 0 C15 4.95 15 9.9 15 15 C10.05 15 5.1 15 0 15 C0 10.05 0 5.1 0 0 Z " fill="#EEEEEE" transform="translate(225,91)"/>
<path d="M0 0 C4.95 0 9.9 0 15 0 C15 4.95 15 9.9 15 15 C10.05 15 5.1 15 0 15 C0 10.05 0 5.1 0 0 Z " fill="#EEEEEE" transform="translate(15,91)"/>
<path d="M0 0 C4.95 0 9.9 0 15 0 C15 4.95 15 9.9 15 15 C10.05 15 5.1 15 0 15 C0 10.05 0 5.1 0 0 Z " fill="#FFFFFF" transform="translate(0,91)"/>
<path d="M0 0 C4.95 0 9.9 0 15 0 C15 4.95 15 9.9 15 15 C10.05 15 5.1 15 0 15 C0 10.05 0 5.1 0 0 Z " fill="#EEEEEE" transform="translate(240,76)"/>
<path d="M0 0 C4.95 0 9.9 0 15 0 C15 4.95 15 9.9 15 15 C10.05 15 5.1 15 0 15 C0 10.05 0 5.1 0 0 Z " fill="#FFFFFF" transform="translate(225,76)"/>
<path d="M0 0 C4.95 0 9.9 0 15 0 C15 4.95 15 9.9 15 15 C10.05 15 5.1 15 0 15 C0 10.05 0 5.1 0 0 Z " fill="#EEEEEE" transform="translate(30,76)"/>
<path d="M0 0 C4.95 0 9.9 0 15 0 C15 4.95 15 9.9 15 15 C10.05 15 5.1 15 0 15 C0 10.05 0 5.1 0 0 Z " fill="#FFFFFF" transform="translate(15,76)"/>
<path d="M0 0 C4.95 0 9.9 0 15 0 C15 4.95 15 9.9 15 15 C10.05 15 5.1 15 0 15 C0 10.05 0 5.1 0 0 Z " fill="#EEEEEE" transform="translate(0,76)"/>
<path d="M0 0 C4.95 0 9.9 0 15 0 C15 4.95 15 9.9 15 15 C10.05 15 5.1 15 0 15 C0 10.05 0 5.1 0 0 Z " fill="#FFFFFF" transform="translate(240,61)"/>
<path d="M0 0 C4.95 0 9.9 0 15 0 C15 4.95 15 9.9 15 15 C10.05 15 5.1 15 0 15 C0 10.05 0 5.1 0 0 Z " fill="#EEEEEE" transform="translate(225,61)"/>
<path d="M0 0 C4.95 0 9.9 0 15 0 C15 4.95 15 9.9 15 15 C10.05 15 5.1 15 0 15 C0 10.05 0 5.1 0 0 Z " fill="#FFFFFF" transform="translate(210,61)"/>
<path d="M0 0 C4.95 0 9.9 0 15 0 C15 4.95 15 9.9 15 15 C10.05 15 5.1 15 0 15 C0 10.05 0 5.1 0 0 Z " fill="#FFFFFF" transform="translate(30,61)"/>
<path d="M0 0 C4.95 0 9.9 0 15 0 C15 4.95 15 9.9 15 15 C10.05 15 5.1 15 0 15 C0 10.05 0 5.1 0 0 Z " fill="#EEEEEE" transform="translate(15,61)"/>
<path d="M0 0 C4.95 0 9.9 0 15 0 C15 4.95 15 9.9 15 15 C10.05 15 5.1 15 0 15 C0 10.05 0 5.1 0 0 Z " fill="#FFFFFF" transform="translate(0,61)"/>
<path d="M0 0 C4.95 0 9.9 0 15 0 C15 4.95 15 9.9 15 15 C10.05 15 5.1 15 0 15 C0 10.05 0 5.1 0 0 Z " fill="#EEEEEE" transform="translate(240,46)"/>
<path d="M0 0 C4.95 0 9.9 0 15 0 C15 4.95 15 9.9 15 15 C10.05 15 5.1 15 0 15 C0 10.05 0 5.1 0 0 Z " fill="#FFFFFF" transform="translate(225,46)"/>
<path d="M0 0 C4.95 0 9.9 0 15 0 C15 4.95 15 9.9 15 15 C10.05 15 5.1 15 0 15 C0 10.05 0 5.1 0 0 Z " fill="#EEEEEE" transform="translate(210,46)"/>
<path d="M0 0 C4.95 0 9.9 0 15 0 C15 4.95 15 9.9 15 15 C10.05 15 5.1 15 0 15 C0 10.05 0 5.1 0 0 Z " fill="#FFFFFF" transform="translate(45,46)"/>
<path d="M0 0 C4.95 0 9.9 0 15 0 C15 4.95 15 9.9 15 15 C10.05 15 5.1 15 0 15 C0 10.05 0 5.1 0 0 Z " fill="#EEEEEE" transform="translate(30,46)"/>
<path d="M0 0 C4.95 0 9.9 0 15 0 C15 4.95 15 9.9 15 15 C10.05 15 5.1 15 0 15 C0 10.05 0 5.1 0 0 Z " fill="#FFFFFF" transform="translate(15,46)"/>
<path d="M0 0 C4.95 0 9.9 0 15 0 C15 4.95 15 9.9 15 15 C10.05 15 5.1 15 0 15 C0 10.05 0 5.1 0 0 Z " fill="#EEEEEE" transform="translate(0,46)"/>
<path d="M0 0 C4.95 0 9.9 0 15 0 C15 4.95 15 9.9 15 15 C10.05 15 5.1 15 0 15 C0 10.05 0 5.1 0 0 Z " fill="#FFFFFF" transform="translate(240,31)"/>
<path d="M0 0 C4.95 0 9.9 0 15 0 C15 4.95 15 9.9 15 15 C10.05 15 5.1 15 0 15 C0 10.05 0 5.1 0 0 Z " fill="#EEEEEE" transform="translate(225,31)"/>
<path d="M0 0 C4.95 0 9.9 0 15 0 C15 4.95 15 9.9 15 15 C10.05 15 5.1 15 0 15 C0 10.05 0 5.1 0 0 Z " fill="#FFFFFF" transform="translate(210,31)"/>
<path d="M0 0 C4.95 0 9.9 0 15 0 C15 4.95 15 9.9 15 15 C10.05 15 5.1 15 0 15 C0 10.05 0 5.1 0 0 Z " fill="#EEEEEE" transform="translate(195,31)"/>
<path d="M0 0 C4.95 0 9.9 0 15 0 C15 4.95 15 9.9 15 15 C10.05 15 5.1 15 0 15 C0 10.05 0 5.1 0 0 Z " fill="#FFFFFF" transform="translate(60,31)"/>
<path d="M0 0 C4.95 0 9.9 0 15 0 C15 4.95 15 9.9 15 15 C10.05 15 5.1 15 0 15 C0 10.05 0 5.1 0 0 Z " fill="#EEEEEE" transform="translate(45,31)"/>
<path d="M0 0 C4.95 0 9.9 0 15 0 C15 4.95 15 9.9 15 15 C10.05 15 5.1 15 0 15 C0 10.05 0 5.1 0 0 Z " fill="#FFFFFF" transform="translate(30,31)"/>
<path d="M0 0 C4.95 0 9.9 0 15 0 C15 4.95 15 9.9 15 15 C10.05 15 5.1 15 0 15 C0 10.05 0 5.1 0 0 Z " fill="#EEEEEE" transform="translate(15,31)"/>
<path d="M0 0 C4.95 0 9.9 0 15 0 C15 4.95 15 9.9 15 15 C10.05 15 5.1 15 0 15 C0 10.05 0 5.1 0 0 Z " fill="#FFFFFF" transform="translate(0,31)"/>
<path d="M0 0 C4.95 0 9.9 0 15 0 C15 4.95 15 9.9 15 15 C10.05 15 5.1 15 0 15 C0 10.05 0 5.1 0 0 Z " fill="#EEEEEE" transform="translate(240,16)"/>
<path d="M0 0 C4.95 0 9.9 0 15 0 C15 4.95 15 9.9 15 15 C10.05 15 5.1 15 0 15 C0 10.05 0 5.1 0 0 Z " fill="#FFFFFF" transform="translate(225,16)"/>
<path d="M0 0 C4.95 0 9.9 0 15 0 C15 4.95 15 9.9 15 15 C10.05 15 5.1 15 0 15 C0 10.05 0 5.1 0 0 Z " fill="#EEEEEE" transform="translate(210,16)"/>
<path d="M0 0 C4.95 0 9.9 0 15 0 C15 4.95 15 9.9 15 15 C10.05 15 5.1 15 0 15 C0 10.05 0 5.1 0 0 Z " fill="#FFFFFF" transform="translate(195,16)"/>
<path d="M0 0 C4.95 0 9.9 0 15 0 C15 4.95 15 9.9 15 15 C10.05 15 5.1 15 0 15 C0 10.05 0 5.1 0 0 Z " fill="#EEEEEE" transform="translate(180,16)"/>
<path d="M0 0 C4.95 0 9.9 0 15 0 C15 4.95 15 9.9 15 15 C10.05 15 5.1 15 0 15 C0 10.05 0 5.1 0 0 Z " fill="#FFFFFF" transform="translate(165,16)"/>
<path d="M0 0 C4.95 0 9.9 0 15 0 C15 4.95 15 9.9 15 15 C10.05 15 5.1 15 0 15 C0 10.05 0 5.1 0 0 Z " fill="#FFFFFF" transform="translate(135,16)"/>
<path d="M0 0 C4.95 0 9.9 0 15 0 C15 4.95 15 9.9 15 15 C10.05 15 5.1 15 0 15 C0 10.05 0 5.1 0 0 Z " fill="#EEEEEE" transform="translate(120,16)"/>
<path d="M0 0 C4.95 0 9.9 0 15 0 C15 4.95 15 9.9 15 15 C10.05 15 5.1 15 0 15 C0 10.05 0 5.1 0 0 Z " fill="#FFFFFF" transform="translate(105,16)"/>
<path d="M0 0 C4.95 0 9.9 0 15 0 C15 4.95 15 9.9 15 15 C10.05 15 5.1 15 0 15 C0 10.05 0 5.1 0 0 Z " fill="#EEEEEE" transform="translate(90,16)"/>
<path d="M0 0 C4.95 0 9.9 0 15 0 C15 4.95 15 9.9 15 15 C10.05 15 5.1 15 0 15 C0 10.05 0 5.1 0 0 Z " fill="#FFFFFF" transform="translate(75,16)"/>
<path d="M0 0 C4.95 0 9.9 0 15 0 C15 4.95 15 9.9 15 15 C10.05 15 5.1 15 0 15 C0 10.05 0 5.1 0 0 Z " fill="#EEEEEE" transform="translate(60,16)"/>
<path d="M0 0 C4.95 0 9.9 0 15 0 C15 4.95 15 9.9 15 15 C10.05 15 5.1 15 0 15 C0 10.05 0 5.1 0 0 Z " fill="#FFFFFF" transform="translate(45,16)"/>
<path d="M0 0 C4.95 0 9.9 0 15 0 C15 4.95 15 9.9 15 15 C10.05 15 5.1 15 0 15 C0 10.05 0 5.1 0 0 Z " fill="#EEEEEE" transform="translate(30,16)"/>
<path d="M0 0 C4.95 0 9.9 0 15 0 C15 4.95 15 9.9 15 15 C10.05 15 5.1 15 0 15 C0 10.05 0 5.1 0 0 Z " fill="#FFFFFF" transform="translate(15,16)"/>
<path d="M0 0 C4.95 0 9.9 0 15 0 C15 4.95 15 9.9 15 15 C10.05 15 5.1 15 0 15 C0 10.05 0 5.1 0 0 Z " fill="#EEEEEE" transform="translate(0,16)"/>
<path d="M0 0 C4.95 0 9.9 0 15 0 C15 4.95 15 9.9 15 15 C10.05 15 5.1 15 0 15 C0 10.05 0 5.1 0 0 Z " fill="#FFFFFF" transform="translate(240,1)"/>
<path d="M0 0 C4.95 0 9.9 0 15 0 C15 4.95 15 9.9 15 15 C10.05 15 5.1 15 0 15 C0 10.05 0 5.1 0 0 Z " fill="#EEEEEE" transform="translate(225,1)"/>
<path d="M0 0 C4.95 0 9.9 0 15 0 C15 4.95 15 9.9 15 15 C10.05 15 5.1 15 0 15 C0 10.05 0 5.1 0 0 Z " fill="#FFFFFF" transform="translate(210,1)"/>
<path d="M0 0 C4.95 0 9.9 0 15 0 C15 4.95 15 9.9 15 15 C10.05 15 5.1 15 0 15 C0 10.05 0 5.1 0 0 Z " fill="#EEEEEE" transform="translate(195,1)"/>
<path d="M0 0 C4.95 0 9.9 0 15 0 C15 4.95 15 9.9 15 15 C10.05 15 5.1 15 0 15 C0 10.05 0 5.1 0 0 Z " fill="#FFFFFF" transform="translate(180,1)"/>
<path d="M0 0 C4.95 0 9.9 0 15 0 C15 4.95 15 9.9 15 15 C10.05 15 5.1 15 0 15 C0 10.05 0 5.1 0 0 Z " fill="#EEEEEE" transform="translate(165,1)"/>
<path d="M0 0 C4.95 0 9.9 0 15 0 C15 4.95 15 9.9 15 15 C10.05 15 5.1 15 0 15 C0 10.05 0 5.1 0 0 Z " fill="#FFFFFF" transform="translate(150,1)"/>
<path d="M0 0 C4.95 0 9.9 0 15 0 C15 4.95 15 9.9 15 15 C10.05 15 5.1 15 0 15 C0 10.05 0 5.1 0 0 Z " fill="#EEEEEE" transform="translate(135,1)"/>
<path d="M0 0 C4.95 0 9.9 0 15 0 C15 4.95 15 9.9 15 15 C10.05 15 5.1 15 0 15 C0 10.05 0 5.1 0 0 Z " fill="#FFFFFF" transform="translate(120,1)"/>
<path d="M0 0 C4.95 0 9.9 0 15 0 C15 4.95 15 9.9 15 15 C10.05 15 5.1 15 0 15 C0 10.05 0 5.1 0 0 Z " fill="#EEEEEE" transform="translate(105,1)"/>
<path d="M0 0 C4.95 0 9.9 0 15 0 C15 4.95 15 9.9 15 15 C10.05 15 5.1 15 0 15 C0 10.05 0 5.1 0 0 Z " fill="#FFFFFF" transform="translate(90,1)"/>
<path d="M0 0 C4.95 0 9.9 0 15 0 C15 4.95 15 9.9 15 15 C10.05 15 5.1 15 0 15 C0 10.05 0 5.1 0 0 Z " fill="#EEEEEE" transform="translate(75,1)"/>
<path d="M0 0 C4.95 0 9.9 0 15 0 C15 4.95 15 9.9 15 15 C10.05 15 5.1 15 0 15 C0 10.05 0 5.1 0 0 Z " fill="#FFFFFF" transform="translate(60,1)"/>
<path d="M0 0 C4.95 0 9.9 0 15 0 C15 4.95 15 9.9 15 15 C10.05 15 5.1 15 0 15 C0 10.05 0 5.1 0 0 Z " fill="#EEEEEE" transform="translate(45,1)"/>
<path d="M0 0 C4.95 0 9.9 0 15 0 C15 4.95 15 9.9 15 15 C10.05 15 5.1 15 0 15 C0 10.05 0 5.1 0 0 Z " fill="#FFFFFF" transform="translate(30,1)"/>
<path d="M0 0 C4.95 0 9.9 0 15 0 C15 4.95 15 9.9 15 15 C10.05 15 5.1 15 0 15 C0 10.05 0 5.1 0 0 Z " fill="#EEEEEE" transform="translate(15,1)"/>
<path d="M0 0 C4.95 0 9.9 0 15 0 C15 4.95 15 9.9 15 15 C10.05 15 5.1 15 0 15 C0 10.05 0 5.1 0 0 Z " fill="#FFFFFF" transform="translate(0,1)"/>
<path d="M0 0 C2.87197233 3.58996542 4.87063016 6.35624776 6.9375 10.3125 C9.14333935 14.47160168 11.48724901 18.4401935 14.1171875 22.34375 C15 24 15 24 15 27 C10.05 27 5.1 27 0 27 C0 18.09 0 9.18 0 0 Z " fill="#FCFDFE" transform="translate(45,154)"/>
<path d="M0 0 C2.31 0 4.62 0 7 0 C7 9.9 7 19.8 7 30 C4.69 30 2.38 30 0 30 C0 20.1 0 10.2 0 0 Z " fill="#F2F6FD" transform="translate(126,116)"/>
<path d="M0 0 C9.24 0 18.48 0 28 0 C28 0.33 28 0.66 28 1 C23.71 1 19.42 1 15 1 C15 4.3 15 7.6 15 11 C10.05 11 5.1 11 0 11 C0 7.37 0 3.74 0 0 Z " fill="#FFFFFF" transform="translate(150,215)"/>
<path d="M0 0 C0.66 0.33 1.32 0.66 2 1 C1.67 4.96 1.34 8.92 1 13 C-3.95 13 -8.9 13 -14 13 C-14 9.7 -14 6.4 -14 3 C-12.86111328 2.92652344 -12.86111328 2.92652344 -11.69921875 2.8515625 C-10.20841797 2.73941406 -10.20841797 2.73941406 -8.6875 2.625 C-7.70136719 2.55539063 -6.71523437 2.48578125 -5.69921875 2.4140625 C-2.78471567 2.16134528 -2.78471567 2.16134528 0 0 Z " fill="#ECEDEE" transform="translate(179,213)"/>
<path d="M0 0 C3.3 0 6.6 0 10 0 C10 4.95 10 9.9 10 15 C6.7 15 3.4 15 0 15 C-1.14229879 11.57310364 -0.90861076 9.38897782 -0.5625 5.8125 C-0.46066406 4.72582031 -0.35882813 3.63914062 -0.25390625 2.51953125 C-0.17011719 1.68808594 -0.08632812 0.85664062 0 0 Z " fill="#EAECEF" transform="translate(230,121)"/>
<path d="M0 0 C4.95 0 9.9 0 15 0 C15 3.3 15 6.6 15 10 C10.05 10 5.1 10 0 10 C0 6.7 0 3.4 0 0 Z " fill="#EEEEEE" transform="translate(135,216)"/>
<path d="M0 0 C4.95 0 9.9 0 15 0 C15 3.3 15 6.6 15 10 C10.05 10 5.1 10 0 10 C0 6.7 0 3.4 0 0 Z " fill="#EEEEEE" transform="translate(105,216)"/>
<path d="M0 0 C2.97 0 5.94 0 9 0 C9 4.95 9 9.9 9 15 C6.03 15 3.06 15 0 15 C0 10.05 0 5.1 0 0 Z " fill="#EEEEEE" transform="translate(255,241)"/>
<path d="M0 0 C2.97 0 5.94 0 9 0 C9 4.95 9 9.9 9 15 C6.03 15 3.06 15 0 15 C0 10.05 0 5.1 0 0 Z " fill="#FFFFFF" transform="translate(255,226)"/>
<path d="M0 0 C2.97 0 5.94 0 9 0 C9 4.95 9 9.9 9 15 C6.03 15 3.06 15 0 15 C0 10.05 0 5.1 0 0 Z " fill="#EEEEEE" transform="translate(255,211)"/>
<path d="M0 0 C2.97 0 5.94 0 9 0 C9 4.95 9 9.9 9 15 C6.03 15 3.06 15 0 15 C0 10.05 0 5.1 0 0 Z " fill="#FFFFFF" transform="translate(255,196)"/>
<path d="M0 0 C2.97 0 5.94 0 9 0 C9 4.95 9 9.9 9 15 C6.03 15 3.06 15 0 15 C0 10.05 0 5.1 0 0 Z " fill="#EEEEEE" transform="translate(255,181)"/>
<path d="M0 0 C2.97 0 5.94 0 9 0 C9 4.95 9 9.9 9 15 C6.03 15 3.06 15 0 15 C0 10.05 0 5.1 0 0 Z " fill="#FFFFFF" transform="translate(255,166)"/>
<path d="M0 0 C2.97 0 5.94 0 9 0 C9 4.95 9 9.9 9 15 C6.03 15 3.06 15 0 15 C0 10.05 0 5.1 0 0 Z " fill="#EEEEEE" transform="translate(255,151)"/>
<path d="M0 0 C2.97 0 5.94 0 9 0 C9 4.95 9 9.9 9 15 C6.03 15 3.06 15 0 15 C0 10.05 0 5.1 0 0 Z " fill="#FFFFFF" transform="translate(255,136)"/>
<path d="M0 0 C2.97 0 5.94 0 9 0 C9 4.95 9 9.9 9 15 C6.03 15 3.06 15 0 15 C0 10.05 0 5.1 0 0 Z " fill="#EEEEEE" transform="translate(255,121)"/>
<path d="M0 0 C2.97 0 5.94 0 9 0 C9 4.95 9 9.9 9 15 C6.03 15 3.06 15 0 15 C0 10.05 0 5.1 0 0 Z " fill="#FFFFFF" transform="translate(255,106)"/>
<path d="M0 0 C2.97 0 5.94 0 9 0 C9 4.95 9 9.9 9 15 C6.03 15 3.06 15 0 15 C0 10.05 0 5.1 0 0 Z " fill="#EEEEEE" transform="translate(255,91)"/>
<path d="M0 0 C2.97 0 5.94 0 9 0 C9 4.95 9 9.9 9 15 C6.03 15 3.06 15 0 15 C0 10.05 0 5.1 0 0 Z " fill="#FFFFFF" transform="translate(255,76)"/>
<path d="M0 0 C2.97 0 5.94 0 9 0 C9 4.95 9 9.9 9 15 C6.03 15 3.06 15 0 15 C0 10.05 0 5.1 0 0 Z " fill="#EEEEEE" transform="translate(255,61)"/>
<path d="M0 0 C2.97 0 5.94 0 9 0 C9 4.95 9 9.9 9 15 C6.03 15 3.06 15 0 15 C0 10.05 0 5.1 0 0 Z " fill="#FFFFFF" transform="translate(255,46)"/>
<path d="M0 0 C2.97 0 5.94 0 9 0 C9 4.95 9 9.9 9 15 C6.03 15 3.06 15 0 15 C0 10.05 0 5.1 0 0 Z " fill="#EEEEEE" transform="translate(255,31)"/>
<path d="M0 0 C2.97 0 5.94 0 9 0 C9 4.95 9 9.9 9 15 C6.03 15 3.06 15 0 15 C0 10.05 0 5.1 0 0 Z " fill="#FFFFFF" transform="translate(255,16)"/>
<path d="M0 0 C2.97 0 5.94 0 9 0 C9 4.95 9 9.9 9 15 C6.03 15 3.06 15 0 15 C0 10.05 0 5.1 0 0 Z " fill="#EEEEEE" transform="translate(255,1)"/>
<path d="M0 0 C4.95 0 9.9 0 15 0 C15 2.64 15 5.28 15 8 C11.58860997 9.09651823 8.79344419 8.94215473 5.25 8.5625 C4.26515625 8.46066406 3.2803125 8.35882813 2.265625 8.25390625 C1.51796875 8.17011719 0.7703125 8.08632813 0 8 C0 5.36 0 2.72 0 0 Z " fill="#EDEDEE" transform="translate(165,31)"/>
<path d="M0 0 C4.95 0 9.9 0 15 0 C15 2.64 15 5.28 15 8 C10.05 8 5.1 8 0 8 C0 5.36 0 2.72 0 0 Z " fill="#FEFEFE" transform="translate(150,31)"/>
<path d="M0 0 C4.95 0 9.9 0 15 0 C15 2.64 15 5.28 15 8 C10.05 8 5.1 8 0 8 C0 5.36 0 2.72 0 0 Z " fill="#EEEEEE" transform="translate(135,31)"/>
<path d="M0 0 C4.95 0 9.9 0 15 0 C15 2.64 15 5.28 15 8 C10.05 8 5.1 8 0 8 C0 5.36 0 2.72 0 0 Z " fill="#EEEEEE" transform="translate(105,31)"/>
<path d="M0 0 C2.31 0 4.62 0 7 0 C7 5.94 7 11.88 7 18 C1.62857143 15.31428571 1.62857143 15.31428571 0 13 C-0.29296875 9.86328125 -0.29296875 9.86328125 -0.1875 6.3125 C-0.16042969 5.13300781 -0.13335937 3.95351562 -0.10546875 2.73828125 C-0.07066406 1.83464844 -0.03585938 0.93101563 0 0 Z " fill="#F2F5FB" transform="translate(113,125)"/>
<path d="M0 0 C3.36123666 2.24082444 4.33287686 3.93363174 6.25 7.4375 C7.06210938 8.88962891 7.06210938 8.88962891 7.890625 10.37109375 C9 13 9 13 8 16 C5.36 15.67 2.72 15.34 0 15 C0 10.05 0 5.1 0 0 Z " fill="#FAFBFD" transform="translate(60,181)"/>
<path d="M0 0 C2.31 0 4.62 0 7 0 C7.43535798 4.35357983 7.38921814 7.04099736 4.625 10.4375 C2 13 2 13 0 13 C0 8.71 0 4.42 0 0 Z " fill="#E9F0FC" transform="translate(140,130)"/>
<path d="M0 0 C2.31 0 4.62 0 7 0 C7 3.96 7 7.92 7 12 C3.33663903 10.77887968 2.64957986 9.13279518 0.76953125 5.88671875 C0 4 0 4 0 0 Z " fill="#EAECF0" transform="translate(188,46)"/>
<path d="M0 0 C0 3.3 0 6.6 0 10 C-2.31 10 -4.62 10 -7 10 C-7.33 10.99 -7.66 11.98 -8 13 C-8.33 12.34 -8.66 11.68 -9 11 C-8.109375 8.90625 -8.109375 8.90625 -6.75 6.5 C-6.31171875 5.7059375 -5.8734375 4.911875 -5.421875 4.09375 C-2.64179104 0 -2.64179104 0 0 0 Z " fill="#F8FAFD" transform="translate(210,171)"/>
<path d="M0 0 C2.31 0 4.62 0 7 0 C5.43358249 4.30764815 3.31663844 8.06171464 1 12 C0.67 12 0.34 12 0 12 C0 8.04 0 4.08 0 0 Z " fill="#FEFEFE" transform="translate(60,61)"/>
<path d="M0 0 C7 8.44827586 7 8.44827586 7 12 C4.69 12 2.38 12 0 12 C0 8.04 0 4.08 0 0 Z " fill="#E7EAF0" transform="translate(45,154)"/>
<path d="M0 0 C1.04770842 3.14312525 1.01720722 5.70921075 0.96875 8.9921875 C1.00645627 11.41481509 1.41325477 13.65301908 2 16 C0.68 16 -0.64 16 -2 16 C-2 11.05 -2 6.1 -2 1 C-1.34 0.67 -0.68 0.34 0 0 Z " fill="#FEFEFE" transform="translate(32,120)"/>
<path d="M0 0 C0.99842851 3.10622202 0.93947552 4.89973077 0 8 C-0.34060811 9.66519519 -0.67558396 11.33157466 -1 13 C-2.32 13.33 -3.64 13.66 -5 14 C-4.34 13.67 -3.68 13.34 -3 13 C-3.185625 12.05125 -3.37125 11.1025 -3.5625 10.125 C-4 7 -4 7 -3 5 C-2.34 5.33 -1.68 5.66 -1 6 C-0.67 4.02 -0.34 2.04 0 0 Z " fill="#3F7DE7" transform="translate(107,200)"/>
<path d="M0 0 C1.65 0 3.3 0 5 0 C5 2.97 5 5.94 5 9 C2 6 2 6 0 3 C0 2.01 0 1.02 0 0 Z " fill="#FDFDFD" transform="translate(205,76)"/>
<path d="M0 0 C0.928125 0.5259375 0.928125 0.5259375 1.875 1.0625 C2.57625 1.371875 3.2775 1.68125 4 2 C4.66 1.67 5.32 1.34 6 1 C6.33 1.99 6.66 2.98 7 4 C3.62182575 4.84454356 1.32534757 5.10844919 -2 4 C-1.34 2.68 -0.68 1.36 0 0 Z " fill="#3F7DE7" transform="translate(123,209)"/>
<path d="M0 0 C0.99 0 1.98 0 3 0 C3 1.98 3 3.96 3 6 C1.35 6 -0.3 6 -2 6 C-1.34 4.02 -0.68 2.04 0 0 Z " fill="#E6EAF0" transform="translate(222,145)"/>
<path d="M0 0 C1.65 0 3.3 0 5 0 C3.92598892 2.91517292 3.22189824 4.77810176 1 7 C0 6 0 6 -0.0625 2.9375 C-0.041875 1.968125 -0.02125 0.99875 0 0 Z " fill="#E3E8F1" transform="translate(45,91)"/>
</svg>
