<?xml version="1.0" encoding="UTF-8"?>
<svg version="1.1" xmlns="http://www.w3.org/2000/svg" width="266" height="300">
<path d="M0 0 C3.79501343 1.87936611 7.3876868 4.04338334 11 6.25 C13.15536262 7.53794451 15.31163513 8.82436739 17.46875 10.109375 C18.55929688 10.76228516 19.64984375 11.41519531 20.7734375 12.08789062 C25.63831533 14.97089026 30.56601996 17.7375007 35.5 20.5 C43.33716412 24.90363137 51.12139204 29.38844709 58.875 33.9375 C67.03151013 38.72109697 75.23799958 43.40106633 83.5 48 C92.06968726 52.77208675 100.58979823 57.62009063 109.0625 62.5625 C110.04347656 63.13419922 111.02445313 63.70589844 112.03515625 64.29492188 C114.69677522 65.85307798 117.35613546 67.41187416 120 69 C120.68052933 69.2999437 121.36105865 69.59988739 122.06221008 69.90892029 C124.42531865 71.07506367 126.14573847 72.11942561 128 74 C129.20731751 77.72473094 129.14607901 81.32427206 129.09765625 85.21484375 C129.10768173 86.30334122 129.11770721 87.39183868 129.1280365 88.51332092 C129.13784957 90.81218566 129.12732758 93.11121478 129.09790039 95.40991211 C129.06263168 98.92437832 129.11785895 102.42945701 129.18164062 105.94335938 C129.17994826 108.17969833 129.17296265 110.41604083 129.16015625 112.65234375 C129.18151138 113.69937973 129.20286652 114.74641571 129.22486877 115.82518005 C129.04353135 122.92559519 129.04353135 122.92559519 126.15103149 125.90367126 C123.83448198 127.47826341 121.51032431 128.76133499 119 130 C117.87110352 130.66346436 116.74220703 131.32692871 115.57910156 132.01049805 C114.5269043 132.58840088 113.47470703 133.16630371 112.390625 133.76171875 C111.81592468 134.07905472 111.24122437 134.39639069 110.64910889 134.7233429 C108.85142654 135.71512071 107.05088656 136.70155469 105.25 137.6875 C103.43544731 138.68523792 101.62152543 139.6841077 99.80804443 140.68379211 C98.17424456 141.58377126 96.53883177 142.48082057 94.90332031 143.37768555 C92.99251139 144.44540547 91.10479758 145.55573316 89.24511719 146.71020508 C87 148 87 148 85 148 C85 148.66 85 149.32 85 150 C85.87833496 150.2678833 86.75666992 150.5357666 87.66162109 150.81176758 C90.85755669 151.94930002 93.50146791 153.28721808 96.4140625 155.01171875 C97.42339844 155.60533203 98.43273437 156.19894531 99.47265625 156.81054688 C100.51292969 157.42994141 101.55320313 158.04933594 102.625 158.6875 C103.64207031 159.28755859 104.65914062 159.88761719 105.70703125 160.50585938 C107.75956263 161.71682688 109.81067524 162.93020239 111.86035156 164.14599609 C116.12897199 166.66667288 120.41972635 169.1487292 124.71240234 171.62817383 C127 173 127 173 128 174 C128.16079638 175.52071518 128.25425598 177.04862973 128.31982422 178.57641602 C128.36170868 179.55155655 128.40359314 180.52669708 128.44674683 181.53138733 C128.59708993 186.01981128 128.7044036 190.50817537 128.78955078 194.99829102 C128.8462343 197.36264147 128.92802407 199.7265314 129.03564453 202.08911133 C129.88325816 221.04350577 129.88325816 221.04350577 126.86917114 225.77526855 C123.5058478 229.03456408 119.32461051 230.43918313 115 232 C113.01490086 233.08078688 111.04869003 234.19717526 109.10546875 235.3515625 C107.13400323 236.44485826 105.16131145 237.53594524 103.1875 238.625 C94.80073384 243.2867611 86.46424776 248.02056193 78.1875 252.875 C69.57097432 257.9269236 60.92572106 262.92553727 52.25 267.875 C51.38149918 268.37055893 51.38149918 268.37055893 50.49545288 268.87612915 C47.54230735 270.56089213 44.58868252 272.24481253 41.63476562 273.92822266 C36.023289 277.12629361 30.4140606 280.32830009 24.80554199 283.53155518 C23.0662946 284.5246465 21.32661288 285.51697703 19.58691406 286.50927734 C18.50635742 287.12625488 17.42580078 287.74323242 16.3125 288.37890625 C14.74048828 289.26860107 14.74048828 289.26860107 13.13671875 290.17626953 C10.98838909 291.42533729 8.8665318 292.72075283 6.76953125 294.05419922 C-0.96048291 298.90466307 -0.96048291 298.90466307 -5.53515625 299.32421875 C-10.80068333 297.31180198 -15.57070859 294.64217005 -20.4375 291.8125 C-21.53642578 291.18537109 -22.63535156 290.55824219 -23.76757812 289.91210938 C-27.18662413 287.95529688 -30.59502155 285.98117711 -34 284 C-35.02496582 283.40364746 -36.04993164 282.80729492 -37.10595703 282.19287109 C-41.06357582 279.88625175 -45.0188293 277.5756836 -48.96972656 275.25756836 C-57.20794756 270.43218998 -65.52349487 265.75426149 -73.86206055 261.10498047 C-82.95936949 256.03160406 -92.00651114 250.87483653 -101.04199219 245.69238281 C-103.82897606 244.09784896 -106.61894845 242.5087239 -109.41029358 240.92184448 C-111.95795737 239.47341595 -114.50467221 238.02332297 -117.05136108 236.57318115 C-118.29493564 235.86560826 -119.53892477 235.15876341 -120.78335571 234.45269775 C-122.53250683 233.46008123 -124.27995273 232.46446171 -126.02734375 231.46875 C-127.03531006 230.89576172 -128.04327637 230.32277344 -129.08178711 229.73242188 C-130.04479736 229.16072266 -131.00780762 228.58902344 -132 228 C-133.0945752 227.49774902 -134.18915039 226.99549805 -135.31689453 226.47802734 C-138.37296201 223.65554464 -138.45824533 223.02132796 -138.82397461 219.05126953 C-138.88386807 216.99582368 -138.90767699 214.93912387 -138.90234375 212.8828125 C-138.91519913 211.79290009 -138.9280545 210.70298767 -138.94129944 209.58004761 C-138.95852234 207.27527108 -138.96003481 204.97033148 -138.94702148 202.66552734 C-138.93754751 199.1426675 -139.00784935 195.62739111 -139.08398438 192.10546875 C-139.09080477 189.86459286 -139.09291317 187.62369667 -139.08984375 185.3828125 C-139.11747299 184.33263947 -139.14510223 183.28246643 -139.17356873 182.20046997 C-139.03872556 175.07329475 -139.03872556 175.07329475 -136.15548706 172.09410095 C-133.83763594 170.51869632 -131.51271224 169.23724697 -129 168 C-127.87110352 167.33653564 -126.74220703 166.67307129 -125.57910156 165.98950195 C-124.5269043 165.41159912 -123.47470703 164.83369629 -122.390625 164.23828125 C-121.52857452 163.7622773 -121.52857452 163.7622773 -120.64910889 163.2766571 C-118.85142654 162.28487929 -117.05088656 161.29844531 -115.25 160.3125 C-113.43544731 159.31476208 -111.62152543 158.3158923 -109.80804443 157.31620789 C-108.17424456 156.41622874 -106.53883177 155.51917943 -104.90332031 154.62231445 C-102.99251139 153.55459453 -101.10479758 152.44426684 -99.24511719 151.28979492 C-97 150 -97 150 -95 150 C-95 149.34 -95 148.68 -95 148 C-95.69061523 147.74186523 -96.38123047 147.48373047 -97.09277344 147.21777344 C-102.35924937 145.01176219 -107.28182267 142.10445569 -112.27294922 139.34277344 C-114.2273941 138.26249494 -116.18574216 137.1895641 -118.14453125 136.1171875 C-119.41430807 135.41711189 -120.68384678 134.7166042 -121.953125 134.015625 C-123.65710449 133.07638184 -123.65710449 133.07638184 -125.39550781 132.11816406 C-125.96107391 131.78209137 -126.52664001 131.44601868 -127.10934448 131.09976196 C-128.50944508 130.2853474 -129.94447813 129.53035463 -131.39480591 128.80917358 C-137.47581286 125.45636266 -137.47581286 125.45636266 -138.86621094 121.59338379 C-139.25990257 118.61479578 -139.35235513 115.76235462 -139.3359375 112.7578125 C-139.35403473 111.67547333 -139.37213196 110.59313416 -139.39077759 109.47799683 C-139.41437789 107.19362357 -139.41463247 104.90890509 -139.39306641 102.62451172 C-139.37506768 99.13811058 -139.47411076 95.66809499 -139.58203125 92.18359375 C-139.76984346 76.71705895 -139.76984346 76.71705895 -136.85940552 72.2489624 C-133.49400463 69.0017294 -129.31036219 67.58647683 -125 66 C-122.87021 64.84444808 -120.75876143 63.65438813 -118.66796875 62.4296875 C-116.50906748 61.2425066 -114.34887195 60.05767682 -112.1875 58.875 C-103.34844025 54.01010431 -94.5730459 49.05161881 -85.875 43.9375 C-77.80327346 39.19225063 -69.68190096 34.55269379 -61.5 30 C-53.13096824 25.34313881 -44.82445244 20.59425965 -36.5625 15.75 C-34.58609821 14.59738063 -32.60953931 13.44503062 -30.6328125 12.29296875 C-26.99050117 10.16942783 -23.36285177 8.02346916 -19.7421875 5.86328125 C-18.14118948 4.92871981 -16.53965996 3.99506806 -14.9375 3.0625 C-13.87607788 2.41522949 -13.87607788 2.41522949 -12.79321289 1.75488281 C-8.13732488 -0.91786869 -5.34077724 -1.65592352 0 0 Z " fill="#E5331C" transform="translate(138,1)"/>
<path d="M0 0 C3.80422735 1.85950633 7.38842286 4.04383297 11 6.25 C13.15536262 7.53794451 15.31163513 8.82436739 17.46875 10.109375 C18.55929688 10.76228516 19.64984375 11.41519531 20.7734375 12.08789062 C25.63831533 14.97089026 30.56601996 17.7375007 35.5 20.5 C43.33716412 24.90363137 51.12139204 29.38844709 58.875 33.9375 C67.03151013 38.72109697 75.23799958 43.40106633 83.5 48 C92.06968726 52.77208675 100.58979823 57.62009063 109.0625 62.5625 C110.04347656 63.13419922 111.02445313 63.70589844 112.03515625 64.29492188 C117.41415088 67.44387498 122.73230413 70.66813583 128 74 C125.22262654 76.98885268 122.56071009 79.01050908 118.984375 80.9609375 C117.99308594 81.5075 117.00179687 82.0540625 115.98046875 82.6171875 C114.91441406 83.19726562 113.84835938 83.77734375 112.75 84.375 C110.47293027 85.6309504 108.19691359 86.88881161 105.921875 88.1484375 C105.34256226 88.46866882 104.76324951 88.78890015 104.16638184 89.11883545 C98.38958432 92.32026661 92.69172489 95.65042203 87 99 C78.66226901 103.89959806 70.26439727 108.67515448 61.8125 113.375 C54.44247886 117.47333008 47.14214648 121.60684274 40.0390625 126.15625 C36.44233382 128.33832704 32.76231682 130.33345947 29.06347656 132.33642578 C23.70676083 135.24530855 18.38523853 138.21703782 13.0625 141.1875 C11.95326172 141.80302734 10.84402344 142.41855469 9.70117188 143.05273438 C8.63576172 143.64763672 7.57035156 144.24253906 6.47265625 144.85546875 C5.51625244 145.38809326 4.55984863 145.92071777 3.57446289 146.46948242 C0.99244722 147.90180721 0.99244722 147.90180721 -1.02954102 149.7590332 C-3 151 -3 151 -5.44628906 150.85424805 C-8.1720495 149.9424473 -10.39491274 148.81095069 -12.859375 147.33203125 C-13.79716797 146.77580078 -14.73496094 146.21957031 -15.70117188 145.64648438 C-16.70728516 145.04126953 -17.71339844 144.43605469 -18.75 143.8125 C-20.9207282 142.52540766 -23.09264023 141.24031016 -25.265625 139.95703125 C-26.38130859 139.29783691 -27.49699219 138.63864258 -28.64648438 137.95947266 C-33.8885847 134.89649237 -39.19204859 131.94691177 -44.5 129 C-52.68237412 124.44816523 -60.80315641 119.80750713 -68.875 115.0625 C-78.46176526 109.42917022 -88.15047623 104.0017809 -97.88696289 98.63208008 C-106.77610077 93.71582029 -115.56570614 88.64345184 -124.3125 83.47851562 C-128.8113984 80.82749111 -133.28325538 78.24381151 -138 76 C-136.6892633 72.06778989 -135.23212812 71.70393828 -131.65625 69.69921875 C-129.95903809 68.73894775 -129.95903809 68.73894775 -128.22753906 67.75927734 C-126.9851115 67.06853117 -125.7425962 66.37794276 -124.5 65.6875 C-123.22317005 64.96908356 -121.94680801 64.24983492 -120.67089844 63.52978516 C-117.408715 61.69183151 -114.14060728 59.86473972 -110.86987305 58.04205322 C-108.05246925 56.47195481 -105.23729484 54.89787121 -102.421875 53.32421875 C-99.33463973 51.59867129 -96.24723256 49.87345697 -93.15820312 48.15112305 C-85.05042723 43.61974006 -77.02794658 38.95204528 -69.01855469 34.24951172 C-60.87411388 29.47972888 -52.6493594 24.8645873 -44.40161133 20.27636719 C-35.73851153 15.44451151 -27.16279888 10.47117329 -18.61328125 5.44140625 C-17.67226562 4.88839844 -16.73125 4.33539063 -15.76171875 3.765625 C-14.93631592 3.27868164 -14.11091309 2.79173828 -13.26049805 2.29003906 C-8.4538002 -0.45308562 -5.48497061 -1.772146 0 0 Z " fill="#EA5B2A" transform="translate(138,1)"/>
<path d="M0 0 C7.93469226 3.85406779 15.60692553 7.99291014 23.1875 12.5 C31.56890411 17.43828961 39.99769858 22.27294437 48.5 27 C57.89479745 32.22715847 67.20060397 37.58973669 76.47265625 43.03125 C82.96639002 46.83496741 89.50751029 50.53296259 96.10375977 54.15527344 C103.82675562 58.4163574 111.42773439 62.88558024 119.03125 67.35546875 C120.00835937 67.92910156 120.98546875 68.50273437 121.9921875 69.09375 C122.86214355 69.60615234 123.73209961 70.11855469 124.62841797 70.64648438 C125.41104004 71.09314453 126.19366211 71.53980469 127 72 C127.9593042 72.61584961 127.9593042 72.61584961 128.93798828 73.24414062 C132.8427108 74.67547154 136.12691308 73.39849645 139.77880859 71.73168945 C140.72578613 71.19761475 141.67276367 70.66354004 142.6484375 70.11328125 C143.72367676 69.51185303 144.79891602 68.9104248 145.90673828 68.29077148 C147.05126465 67.63794189 148.19579102 66.9851123 149.375 66.3125 C150.58414075 65.63100257 151.79361876 64.95010322 153.00341797 64.26977539 C161.74764065 59.3385894 170.42270762 54.28843368 179.07763672 49.20239258 C186.1681557 45.04219278 193.31654182 40.99730979 200.5 37 C209.80759094 31.8187309 219.03511606 26.51564149 228.2265625 21.13134766 C234.96763176 17.18303902 241.72232494 13.26017633 248.5 9.375 C249.34208008 8.89015137 250.18416016 8.40530273 251.05175781 7.90576172 C251.84936523 7.44959473 252.64697266 6.99342773 253.46875 6.5234375 C254.15388672 6.13075684 254.83902344 5.73807617 255.54492188 5.33349609 C258.98494289 3.46502008 262.4909452 1.73453298 266 0 C266.33078131 6.83049276 266.55770383 13.65891346 266.71411133 20.49560547 C266.77932368 22.81833029 266.86792541 25.14052462 266.98071289 27.46142578 C267.86334443 46.09653327 267.86334443 46.09653327 264.87240601 50.75701904 C261.50327758 54.0040464 257.31701341 55.42442628 253 57 C251.01533504 58.08158397 249.0491553 59.19795881 247.10546875 60.3515625 C245.13400323 61.44485826 243.16131145 62.53594524 241.1875 63.625 C232.80073384 68.2867611 224.46424776 73.02056193 216.1875 77.875 C207.57097432 82.9269236 198.92572106 87.92553727 190.25 92.875 C189.67099945 93.20537262 189.0919989 93.53574524 188.49545288 93.87612915 C185.54230735 95.56089213 182.58868252 97.24481253 179.63476562 98.92822266 C174.023289 102.12629361 168.4140606 105.32830009 162.80554199 108.53155518 C161.0662946 109.5246465 159.32661288 110.51697703 157.58691406 111.50927734 C156.50635742 112.12625488 155.42580078 112.74323242 154.3125 113.37890625 C153.26449219 113.97203613 152.21648437 114.56516602 151.13671875 115.17626953 C148.98838909 116.42533729 146.8665318 117.72075283 144.76953125 119.05419922 C137.03951709 123.90466307 137.03951709 123.90466307 132.46484375 124.32421875 C127.19931667 122.31180198 122.42929141 119.64217005 117.5625 116.8125 C116.46357422 116.18537109 115.36464844 115.55824219 114.23242188 114.91210938 C110.81337587 112.95529688 107.40497845 110.98117711 104 109 C102.97503418 108.40364746 101.95006836 107.80729492 100.89404297 107.19287109 C96.93642418 104.88625175 92.9811707 102.5756836 89.03027344 100.25756836 C80.79205244 95.43218998 72.47650513 90.75426149 64.13793945 86.10498047 C55.04063051 81.03160406 45.99348886 75.87483653 36.95800781 70.69238281 C34.17102394 69.09784896 31.38105155 67.5087239 28.58970642 65.92184448 C26.04204263 64.47341595 23.49532779 63.02332297 20.94863892 61.57318115 C19.70506436 60.86560826 18.46107523 60.15876341 17.21664429 59.45269775 C15.46749317 58.46008123 13.72004727 57.46446171 11.97265625 56.46875 C10.96468994 55.89576172 9.95672363 55.32277344 8.91821289 54.73242188 C7.95520264 54.16072266 6.99219238 53.58902344 6 53 C4.34834839 52.24638184 4.34834839 52.24638184 2.66333008 51.47753906 C-0.39730794 48.63040783 -0.43292789 48.04214593 -0.68115234 44.04785156 C-0.68020382 41.99519754 -0.64638294 39.94238906 -0.5859375 37.890625 C-0.57744781 36.80867859 -0.56895813 35.72673218 -0.56021118 34.61199951 C-0.52662952 31.15698588 -0.45133564 27.70430789 -0.375 24.25 C-0.34490682 21.90758579 -0.3175299 19.565135 -0.29296875 17.22265625 C-0.22682273 11.48097421 -0.12642549 5.74065394 0 0 Z " fill="#E5331C" transform="translate(0,176)"/>
<path d="M0 0 C1.89515587 0.90771443 3.75548678 1.8898811 5.5859375 2.921875 C6.66987793 3.52862061 7.75381836 4.13536621 8.87060547 4.76049805 C10.03883047 5.42350066 11.20695964 6.08667216 12.375 6.75 C13.58837933 7.43262571 14.80208825 8.11466587 16.01611328 8.79614258 C19.0976916 10.5280504 22.17470143 12.2679033 25.25048828 14.0100708 C27.88310293 15.49968764 30.51978795 16.98204981 33.15625 18.46484375 C41.6071515 23.22324387 50.03934397 28.01458433 58.46313477 32.82080078 C60.25041213 33.84040897 62.03863054 34.85836974 63.82788086 35.87451172 C67.51196968 37.9729039 71.17548977 40.08377459 74.765625 42.33984375 C76.33570312 43.31630859 76.33570312 43.31630859 77.9375 44.3125 C78.79214844 44.86550781 79.64679688 45.41851562 80.52734375 45.98828125 C83.80065607 47.32759861 85.57579311 46.80344226 89 46 C91.76011561 44.72371818 91.76011561 44.72371818 94.44921875 43.05078125 C95.46306641 42.44943359 96.47691406 41.84808594 97.52148438 41.22851562 C98.56626953 40.59623047 99.61105469 39.96394531 100.6875 39.3125 C102.75298416 38.07788313 104.81938608 36.84480033 106.88671875 35.61328125 C108.42114624 34.69832886 108.42114624 34.69832886 109.98657227 33.76489258 C113.6902202 31.59575453 117.44725923 29.54091691 121.22436523 27.50317383 C126.24225566 24.78568316 131.21109383 21.98001013 136.1875 19.1875 C137.27595215 18.57729004 138.3644043 17.96708008 139.48583984 17.33837891 C142.65769622 15.5597547 145.82898317 13.78012048 149 12 C150.28366455 11.27949463 150.28366455 11.27949463 151.59326172 10.54443359 C153.7708258 9.3218538 155.94805807 8.09868721 158.125 6.875 C158.73239014 6.53364014 159.33978027 6.19228027 159.96557617 5.84057617 C163.42537073 3.90712288 163.42537073 3.90712288 166.80371094 1.83691406 C171.39752766 -1.05493933 171.39752766 -1.05493933 174.37207031 -0.78369141 C177.33433869 0.09970524 179.73909441 1.32071976 182.4296875 2.84375 C183.46617432 3.42664795 184.50266113 4.0095459 185.57055664 4.61010742 C186.66102295 5.23377197 187.75148926 5.85743652 188.875 6.5 C189.9880249 7.13204346 191.1010498 7.76408691 192.24780273 8.4152832 C195.50297616 10.26920896 198.75157781 12.13427913 202 14 C202.86931152 14.49290527 203.73862305 14.98581055 204.63427734 15.49365234 C206.78424103 16.71293456 208.92514707 17.94628378 211.0625 19.1875 C211.68044434 19.53683594 212.29838867 19.88617188 212.93505859 20.24609375 C214.59765625 21.23046875 214.59765625 21.23046875 217 23 C217 23.99 217 24.98 217 26 C216.14341797 26.48073975 216.14341797 26.48073975 215.26953125 26.97119141 C204.16995154 33.2069847 193.10574052 39.49442117 182.125 45.9375 C172.93204105 51.32900573 163.6640018 56.57003126 154.3515625 61.75195312 C147.22401868 65.72795239 140.16076829 69.80155022 133.125 73.9375 C121.10193352 81.0023425 108.93597948 87.79908027 96.69873047 94.48535156 C94.44073814 95.75263801 92.2775047 97.09856276 90.09765625 98.4921875 C86.33558235 100.32341136 85.00112123 99.97855532 81 99 C78.29370117 97.76000977 78.29370117 97.76000977 75.54296875 96.19140625 C74.52203125 95.61455078 73.50109375 95.03769531 72.44921875 94.44335938 C70.83466797 93.51233398 70.83466797 93.51233398 69.1875 92.5625 C68.06601563 91.92505859 66.94453125 91.28761719 65.7890625 90.63085938 C58.99474231 86.75786285 52.24015779 82.8192141 45.51855469 78.8215332 C39.38569918 75.18792609 33.16540005 71.71754875 26.9375 68.25 C17.57156271 63.03410272 8.28841652 57.69448368 -0.95458984 52.26416016 C-8.31243316 47.95344341 -15.73481998 43.76927592 -23.1875 39.625 C-31.59293706 34.95021476 -39.89843871 30.18628774 -48 25 C-45.13356767 21.8972909 -42.32913679 19.85770378 -38.6328125 17.828125 C-37.58834961 17.2494165 -36.54388672 16.67070801 -35.46777344 16.07446289 C-34.3646582 15.47239014 -33.26154297 14.87031738 -32.125 14.25 C-29.86148374 13.00480641 -27.59845962 11.75871778 -25.3359375 10.51171875 C-24.24506836 9.91149902 -23.15419922 9.3112793 -22.03027344 8.69287109 C-19.46339736 7.25887829 -16.9307644 5.78914753 -14.4140625 4.26953125 C-13.77839355 3.88829102 -13.14272461 3.50705078 -12.48779297 3.11425781 C-10.87664336 2.13914788 -9.27387562 1.15022516 -7.671875 0.16015625 C-4.42650047 -1.24901953 -3.36045018 -0.94610162 0 0 Z " fill="#EA5B2A" transform="translate(48,151)"/>
<path d="M0 0 C7.93469226 3.85406779 15.60692553 7.99291014 23.1875 12.5 C31.56890411 17.43828961 39.99769858 22.27294437 48.5 27 C57.89479745 32.22715847 67.20060397 37.58973669 76.47265625 43.03125 C82.27532764 46.43017625 88.10685142 49.76067968 94 53 C101.31075229 57.02154874 108.53996415 61.17565301 115.75 65.375 C117.28720703 66.26832031 117.28720703 66.26832031 118.85546875 67.1796875 C119.82613281 67.746875 120.79679687 68.3140625 121.796875 68.8984375 C122.65635742 69.40036621 123.51583984 69.90229492 124.40136719 70.41943359 C125.25891602 70.94102051 126.11646484 71.46260742 127 72 C128.08522949 72.49935059 129.17045898 72.99870117 130.28857422 73.51318359 C133.37871214 76.34734034 133.43266008 76.8708386 133.68115234 80.86035156 C133.68020401 82.87069303 133.64639388 84.88119255 133.5859375 86.890625 C133.57744781 87.95037537 133.56895813 89.01012573 133.56021118 90.10198975 C133.5266329 93.48569544 133.45134042 96.86701509 133.375 100.25 C133.34490635 102.54423641 133.31752951 104.83851019 133.29296875 107.1328125 C133.22682738 112.75602196 133.12643408 118.37784055 133 124 C128.75540641 122.70803074 125.10956143 121.08904687 121.2734375 118.8671875 C120.17346436 118.23401611 119.07349121 117.60084473 117.94018555 116.94848633 C116.7517693 116.25736044 115.5633747 115.56619733 114.375 114.875 C113.13029915 114.15656456 111.88525699 113.43872013 110.63989258 112.72143555 C108.05073724 111.22953016 105.46306946 109.73509263 102.87646484 108.23876953 C97.4089127 105.07811058 91.92544358 101.94536903 86.44110107 98.81396484 C84.68122774 97.80891797 82.92186929 96.80297467 81.16259766 95.796875 C73.87315085 91.62985796 66.56630863 87.4946368 59.25 83.375 C50.45846572 78.42274379 41.73432732 73.36234745 33.0300293 68.25854492 C24.75240765 63.41411973 16.41352262 58.68337998 8.04492188 53.99804688 C7.13419922 53.48693359 6.22347656 52.97582031 5.28515625 52.44921875 C4.47957275 51.99893311 3.67398926 51.54864746 2.84399414 51.0847168 C1 50 1 50 0 49 C-0.09319449 47.4651703 -0.117458 45.92607918 -0.11352539 44.38842773 C-0.11344986 43.40748642 -0.11337433 42.4265451 -0.11329651 41.4158783 C-0.10813522 40.3492244 -0.10297394 39.2825705 -0.09765625 38.18359375 C-0.0962413 37.0974025 -0.09482635 36.01121124 -0.09336853 34.8921051 C-0.08775048 31.40720925 -0.07519492 27.92237658 -0.0625 24.4375 C-0.05748733 22.08138113 -0.05292402 19.72526126 -0.04882812 17.36914062 C-0.03777519 11.57940536 -0.02101951 5.78970719 0 0 Z " fill="#CD2920" transform="translate(0,176)"/>
<path d="M0 0 C4.31560277 1.30825594 8.00462828 2.9781553 11.90234375 5.23828125 C13.02769531 5.88667969 14.15304688 6.53507812 15.3125 7.203125 C16.52084322 7.90623301 17.7291763 8.60935844 18.9375 9.3125 C20.19885322 10.04099785 21.46057713 10.76885421 22.72265625 11.49609375 C24.64365631 12.60308116 26.56444592 13.71041307 28.48410034 14.81973267 C34.13470744 18.08458642 39.81303112 21.29892738 45.5 24.5 C56.88601395 30.92185564 68.23506838 37.40786886 79.58088684 43.90034485 C83.83099735 46.33215687 88.0830073 48.7606231 92.3359375 51.1875 C102.96358275 57.25259272 113.58939193 63.3208893 124.1875 69.4375 C124.97777588 69.89229736 125.76805176 70.34709473 126.58227539 70.81567383 C131.88207929 73.88207929 131.88207929 73.88207929 133 75 C133.09304018 76.47354348 133.11746265 77.95150591 133.11352539 79.42797852 C133.11344986 80.36887833 133.11337433 81.30977814 133.11329651 82.27919006 C133.10813522 83.30209641 133.10297394 84.32500275 133.09765625 85.37890625 C133.09553383 86.941605 133.09553383 86.941605 133.09336853 88.53587341 C133.0877508 91.87811094 133.0751953 95.22028257 133.0625 98.5625 C133.05748728 100.82226466 133.05292398 103.08203037 133.04882812 105.34179688 C133.03777561 110.89455391 133.02102024 116.44727225 133 122 C129.83531326 120.7808513 126.84398578 119.45791136 123.875 117.8203125 C123.09745361 117.39258545 122.31990723 116.9648584 121.51879883 116.52416992 C120.68759521 116.06244385 119.8563916 115.60071777 119 115.125 C118.11916748 114.63813721 117.23833496 114.15127441 116.33081055 113.6496582 C109.25958309 109.72857459 102.23496315 105.72826807 95.22412109 101.70043945 C87.15930194 97.07212192 79.03812166 92.54732414 70.91357422 88.02490234 C63.89547868 84.10350989 56.99193109 80.04415362 50.18359375 75.76953125 C47.77856829 74.43275023 45.77179887 73.50416938 43.21875 72.609375 C38.16632078 70.80472079 33.68032414 68.14066889 29.0625 65.4375 C28.15532227 64.91244873 27.24814453 64.38739746 26.31347656 63.84643555 C23.53843564 62.23752288 20.76879892 60.61962617 18 59 C16.2956034 58.00776014 14.59117766 57.01557033 12.88671875 56.0234375 C11.34073749 55.12049045 9.7951432 54.21688041 8.25 53.3125 C7.52949463 52.890896 6.80898926 52.46929199 6.06665039 52.03491211 C1.12089178 49.12089178 1.12089178 49.12089178 0 48 C-0.09311889 46.49581261 -0.11746028 44.98728644 -0.11352539 43.48022461 C-0.11344986 42.51930405 -0.11337433 41.55838348 -0.11329651 40.56834412 C-0.10813522 39.523564 -0.10297394 38.47878387 -0.09765625 37.40234375 C-0.0962413 36.33834854 -0.09482635 35.27435333 -0.09336853 34.17811584 C-0.08775064 30.76454917 -0.07519511 27.351047 -0.0625 23.9375 C-0.05748731 21.62955824 -0.052924 19.32161545 -0.04882812 17.01367188 C-0.0377754 11.34242574 -0.02101987 5.67121747 0 0 Z " fill="#CD2920" transform="translate(0,77)"/>
</svg>
