<?xml version="1.0" encoding="UTF-8"?>
<svg version="1.1" xmlns="http://www.w3.org/2000/svg" width="280" height="280">
<path d="M0 0 C92.4 0 184.8 0 280 0 C280 92.4 280 184.8 280 280 C187.6 280 95.2 280 0 280 C0 187.6 0 95.2 0 0 Z " fill="#2D3142" transform="translate(0,0)"/>
<path d="M0 0 C3.42889959 1.78705786 6.76712324 3.69475962 10.08911133 5.67016602 C11.30424245 6.37187727 12.52039886 7.07181591 13.73754883 7.77001953 C17.14167428 9.73097067 20.52318201 11.72777786 23.90161133 13.73266602 C24.6513623 14.17352539 25.40111328 14.61438477 26.17358398 15.06860352 C29.69766082 17.141698 33.19211923 19.26102663 36.68237305 21.39038086 C41.75418727 24.45801943 46.86319108 27.46376841 51.96411133 30.48266602 C53.13291293 31.1748539 54.3016955 31.86707392 55.47045898 32.55932617 C63.98037086 37.59891228 72.49424152 42.63180746 81.01123047 47.65942383 C84.98256144 50.004262 88.9519147 52.35147031 92.90161133 54.73266602 C90.40450023 45.70584204 87.04571323 37.68928357 80.18676758 31.08032227 C78.90161133 29.73266602 78.90161133 29.73266602 78.90161133 27.73266602 C79.65031494 27.3055835 80.39901855 26.87850098 81.17041016 26.43847656 C84.68532918 24.43298903 88.19983636 22.42678187 91.71411133 20.42016602 C92.66459351 19.87752106 92.66459351 19.87752106 93.63427734 19.32391357 C102.51404861 14.25325682 111.38125995 9.16217984 120.21337891 4.00878906 C120.91487061 3.60055908 121.6163623 3.1923291 122.33911133 2.77172852 C123.23436523 2.24893311 123.23436523 2.24893311 124.14770508 1.71557617 C129.73136323 -1.41357301 134.06624786 -2.17442788 140.36254883 -0.68530273 C148.06957841 1.91137338 152.85500948 6.75757545 157.06176758 13.62719727 C159.04749511 17.71871958 159.20724846 21.26095965 158.90161133 25.73266602 C157.67895508 29.00219727 157.67895508 29.00219727 155.83911133 32.54516602 C155.4969458 33.20677734 155.15478027 33.86838867 154.80224609 34.55004883 C148.2816723 46.94093763 141.07114879 58.98893604 133.94677734 71.0390625 C133.32343506 72.09681885 132.70009277 73.1545752 132.05786133 74.24438477 C131.49776367 75.19015381 130.93766602 76.13592285 130.3605957 77.11035156 C125.87810453 85.16698437 124.59194448 93.07785479 126.38208008 102.17407227 C128.95081982 110.50617732 133.99118699 117.79468041 138.52270508 125.16625977 C142.12475305 131.04661626 145.52505989 137.03319859 148.90161133 143.04516602 C149.71069946 144.48520996 149.71069946 144.48520996 150.53613281 145.9543457 C151.54240934 147.74700811 152.54653479 149.54088036 153.5480957 151.33618164 C154.74979707 153.46386933 155.99284882 155.56054444 157.24536133 157.65844727 C159.75504316 162.31674821 159.67889047 166.06968008 158.24145508 170.99438477 C155.42156184 178.18450215 150.76386812 183.31363987 144.08911133 187.17016602 C138.83954222 189.43609983 133.1497168 189.80703112 127.68212891 187.99853516 C125.45645244 186.94494675 123.34245897 185.7835666 121.21411133 184.54516602 C120.41013916 184.09955322 119.60616699 183.65394043 118.77783203 183.19482422 C117.04577722 182.23043913 115.3192551 181.25606179 113.59790039 180.27270508 C110.85333886 178.70509424 108.09441524 177.16574164 105.33129883 175.63110352 C92.90954351 168.70356569 80.6523092 161.50429708 68.42944336 154.2331543 C64.61566344 151.96934404 60.78974058 149.7263709 56.96411133 147.48266602 C49.24565177 142.95068421 41.56777496 138.35245022 33.90161133 133.73266602 C36.87723052 144.07731862 41.19574361 151.42259288 47.90161133 159.73266602 C32.56223622 169.45174377 16.82243649 178.78379063 0.71411133 187.17016602 C-0.7612207 187.94166992 -0.7612207 187.94166992 -2.26635742 188.72875977 C-6.60334824 190.26614823 -10.33179912 190.27946754 -14.72338867 188.92016602 C-22.87180037 184.84596017 -28.46807356 179.62117601 -31.68823242 170.98266602 C-33.41347231 161.51849293 -30.16648351 156.22764953 -25.41088867 148.10766602 C-24.72874097 146.91461903 -24.04801223 145.7207597 -23.36865234 144.52612305 C-18.46728332 135.94315432 -13.44371172 127.42357663 -8.3125 118.97631836 C-3.42862122 110.87001317 0.61653698 103.88641009 0.40161133 94.23266602 C0.41708008 93.53786133 0.43254883 92.84305664 0.44848633 92.12719727 C0.37225712 81.81719679 -5.98436001 73.21689109 -11.03588867 64.60766602 C-12.03128873 62.88730031 -13.02668179 61.16693047 -14.02149963 59.44622803 C-16.96394355 54.36238038 -19.94821168 49.30697444 -22.97338867 44.27172852 C-24.16109242 42.25882789 -25.34860155 40.24581241 -26.53588867 38.23266602 C-27.09719482 37.3211377 -27.65850098 36.40960938 -28.23681641 35.47045898 C-31.72781392 29.49676597 -33.1814579 24.66172672 -32.09838867 17.73266602 C-29.60016046 10.09529617 -24.20536797 4.27910864 -17.28588867 0.29516602 C-11.38641504 -2.19473155 -5.98374048 -2.4475295 0 0 Z " fill="#FD6849" transform="translate(77.098388671875,46.267333984375)"/>
<path d="M0 0 C3.01466156 1.73606969 5.38569425 4.02146793 7.8203125 6.46875 C8.33529297 6.95537109 8.85027344 7.44199219 9.38085938 7.94335938 C12.95631606 11.49967037 12.95631606 11.49967037 13.1640625 14.1484375 C11.42799281 17.16309906 9.14259457 19.53413175 6.6953125 21.96875 C6.20869141 22.48373047 5.72207031 22.99871094 5.22070312 23.52929688 C1.66439213 27.10475356 1.66439213 27.10475356 -0.984375 27.3125 C-3.99903656 25.57643031 -6.37006925 23.29103207 -8.8046875 20.84375 C-9.31966797 20.35712891 -9.83464844 19.87050781 -10.36523438 19.36914062 C-13.94069106 15.81282963 -13.94069106 15.81282963 -14.1484375 13.1640625 C-12.41236781 10.14940094 -10.12696957 7.77836825 -7.6796875 5.34375 C-7.19306641 4.82876953 -6.70644531 4.31378906 -6.20507812 3.78320312 C-2.64876713 0.20774644 -2.64876713 0.20774644 0 0 Z " fill="#303142" transform="translate(140.9921875,126.84375)"/>
</svg>
