<?xml version="1.0" encoding="UTF-8"?>
<svg version="1.1" xmlns="http://www.w3.org/2000/svg" width="247" height="242">
<path d="M0 0 C0.96472733 -0.01606293 1.92945465 -0.03212585 2.92341614 -0.04867554 C7.33744642 -0.09309404 11.75132589 -0.13418891 16.16552734 -0.15722656 C18.49440501 -0.17379065 20.82323174 -0.20108633 23.15185547 -0.23925781 C26.50734872 -0.29398893 29.86164995 -0.31589538 33.2175293 -0.33056641 C34.77713127 -0.36457047 34.77713127 -0.36457047 36.36824036 -0.39926147 C43.59130841 -0.37812993 43.59130841 -0.37812993 47.48779297 2.53808594 C49.95897322 6.05301256 50.4798769 8.57967202 50.49951172 12.76855469 C50.50589157 13.69316498 50.51227142 14.61777527 50.5188446 15.57040405 C50.52051384 17.0657518 50.52051384 17.0657518 50.5222168 18.59130859 C50.5255452 19.61841949 50.5288736 20.6455304 50.53230286 21.70376587 C50.53736745 23.87753857 50.53971133 26.05131906 50.53955078 28.22509766 C50.54173487 31.54781951 50.55988908 34.8702081 50.57885742 38.19287109 C50.58179192 40.30484912 50.58377634 42.41682873 50.5847168 44.52880859 C50.59190231 45.52165863 50.59908783 46.51450867 50.60649109 47.53744507 C50.58677551 53.50290794 50.41069843 57.80787538 46.3737793 62.48974609 C41.95187915 64.98385795 38.02222967 64.62589939 33.04174805 64.44287109 C32.11040039 64.42482422 31.17905273 64.40677734 30.21948242 64.38818359 C27.93062656 64.3412327 25.64230277 64.26949432 23.35424805 64.19287109 C23.35424805 70.46287109 23.35424805 76.73287109 23.35424805 83.19287109 C24.72838867 83.13486328 26.1025293 83.07685547 27.51831055 83.01708984 C29.33858897 82.97017545 31.15890427 82.9246771 32.97924805 82.88037109 C33.88288086 82.83847656 34.78651367 82.79658203 35.7175293 82.75341797 C40.17333829 82.67210759 43.36238785 82.67314309 46.94018555 85.52490234 C50.15554359 89.07844529 50.47988472 91.4628204 50.4519043 96.07958984 C50.44868164 97.01738281 50.44545898 97.95517578 50.44213867 98.92138672 C50.43375977 99.89785156 50.42538086 100.87431641 50.41674805 101.88037109 C50.41223633 102.8684375 50.40772461 103.85650391 50.40307617 104.87451172 C50.39129125 107.31399067 50.37335587 109.75343851 50.35424805 112.19287109 C56.95424805 112.19287109 63.55424805 112.19287109 70.35424805 112.19287109 C70.3078418 110.59056641 70.26143555 108.98826172 70.21362305 107.33740234 C70.17610023 105.22674392 70.13970062 103.11606531 70.10424805 101.00537109 C70.07073242 99.95027344 70.0372168 98.89517578 70.00268555 97.80810547 C69.90352923 89.94996697 69.90352923 89.94996697 72.24487305 86.01708984 C75.29656094 83.37794494 76.96039892 83.06251262 80.90820312 83.01586914 C81.8529097 83.00303391 82.79761627 82.99019867 83.77095032 82.97697449 C84.79488388 82.96958755 85.81881744 82.96220062 86.8737793 82.95458984 C87.92450119 82.9465181 88.97522308 82.93844635 90.05778503 82.93013 C92.28460028 82.91628295 94.51143681 82.90556359 96.73828125 82.89770508 C100.1425808 82.88049328 103.54590915 82.83661196 106.94995117 82.79248047 C109.1120534 82.78235364 111.27416389 82.77383751 113.4362793 82.76708984 C114.9630706 82.74082771 114.9630706 82.74082771 116.52070618 82.71403503 C123.6042803 82.73575404 123.6042803 82.73575404 127.47412109 85.09448242 C130.28901825 88.23615766 130.48629146 89.98429037 130.53125 94.11401367 C130.55050285 95.65119804 130.55050285 95.65119804 130.57014465 97.21943665 C130.57753159 98.33086533 130.58491852 99.44229401 130.5925293 100.58740234 C130.60060104 101.72690842 130.60867279 102.86641449 130.61698914 104.04045105 C130.63083792 106.4555814 130.6415565 108.8707314 130.64941406 111.28588867 C130.6666292 114.97986934 130.71050999 118.67295581 130.75463867 122.36669922 C130.7647651 124.71109367 130.77328136 127.05549574 130.7800293 129.39990234 C130.79753738 130.50525833 130.81504547 131.61061432 130.83308411 132.74946594 C130.81135887 140.42976774 130.81135887 140.42976774 128.45263672 144.36743164 C125.38791304 147.03350947 123.7568521 147.31567239 119.78393555 147.29052734 C118.88803711 147.28730469 117.99213867 147.28408203 117.0690918 147.28076172 C116.13194336 147.27238281 115.19479492 147.26400391 114.22924805 147.25537109 C113.28436523 147.25085938 112.33948242 147.24634766 111.3659668 147.24169922 C109.02870035 147.22989484 106.69146636 147.21195908 104.35424805 147.19287109 C104.35424805 153.46287109 104.35424805 159.73287109 104.35424805 166.19287109 C105.73999023 166.14646484 107.12573242 166.10005859 108.5534668 166.05224609 C110.38287229 166.01471983 112.21230114 165.97832058 114.04174805 165.94287109 C114.95375977 165.90935547 115.86577148 165.87583984 116.80541992 165.84130859 C121.171946 165.77779549 123.64149926 165.75564624 127.4362793 168.08349609 C130.31356153 171.24792055 130.48872431 173.01923944 130.54711914 177.20581055 C130.56318207 178.25062088 130.579245 179.29543121 130.59579468 180.37190247 C130.64018611 185.15230715 130.68130685 189.93257226 130.7043457 194.71313477 C130.72091261 197.23601501 130.74821188 199.75884818 130.78637695 202.28149414 C130.84107994 205.91496179 130.86301054 209.54732863 130.87768555 213.18115234 C130.91168961 214.87199699 130.91168961 214.87199699 130.94638062 216.59700012 C130.93376493 221.26371268 130.86043858 224.3109598 128.51098633 228.40429688 C123.81685232 231.0639431 119.63493177 230.89013134 114.32299805 230.82177734 C113.25432495 230.8241893 112.18565186 230.82660126 111.08459473 230.8290863 C108.82857548 230.82810824 106.57253211 230.81472446 104.31665039 230.78979492 C100.86611286 230.75548906 97.41813691 230.76913903 93.9675293 230.78857422 C91.77350799 230.7816756 89.57949329 230.77200308 87.38549805 230.75927734 C85.84001282 230.76671715 85.84001282 230.76671715 84.26330566 230.77430725 C79.7863043 230.70079845 77.10861996 230.65375181 73.22729492 228.2824707 C70.56032287 225.30715608 70.23061187 223.73829698 70.2565918 219.84130859 C70.25981445 218.99052734 70.26303711 218.13974609 70.26635742 217.26318359 C70.27473633 216.37373047 70.28311523 215.48427734 70.29174805 214.56787109 C70.29625977 213.67068359 70.30077148 212.77349609 70.30541992 211.84912109 C70.31722214 209.63030461 70.33368649 207.41162091 70.35424805 205.19287109 C69.70944992 205.19953293 69.06465179 205.20619476 68.40031433 205.21305847 C61.70100888 205.27932908 55.00179623 205.32463727 48.30224609 205.35766602 C45.80058003 205.37277054 43.29894052 205.39325539 40.79736328 205.41918945 C37.2055812 205.45549885 33.61414863 205.47258084 30.0222168 205.48583984 C28.90026413 205.5013237 27.77831146 205.51680756 26.62236023 205.53276062 C25.06108147 205.53310051 25.06108147 205.53310051 23.46826172 205.53344727 C22.55114914 205.5401091 21.63403656 205.54677094 20.68913269 205.55363464 C18.35424805 205.19287109 18.35424805 205.19287109 16.5559082 204.00842285 C14.90445652 201.51329476 14.99319864 199.78573459 15.01367188 196.8034668 C15.01389847 195.70255203 15.01412506 194.60163727 15.01435852 193.46736145 C15.02984238 192.27978745 15.04532623 191.09221344 15.0612793 189.86865234 C15.06552414 188.65211472 15.06976898 187.43557709 15.07414246 186.18217468 C15.09095954 182.28968339 15.12861846 178.39770639 15.16674805 174.50537109 C15.18179091 171.86931085 15.19548001 169.23324251 15.20776367 166.59716797 C15.24087305 160.128893 15.291103 153.66091878 15.35424805 147.19287109 C14.77457275 147.21381836 14.19489746 147.23476562 13.59765625 147.25634766 C10.95419881 147.33983917 8.31101925 147.39163262 5.66674805 147.44287109 C4.75473633 147.47638672 3.84272461 147.50990234 2.90307617 147.54443359 C-1.4634499 147.6079467 -3.93300317 147.63009595 -7.7277832 145.30224609 C-10.56253949 142.18459152 -10.76820814 140.52059813 -10.7434082 136.40380859 C-10.74091064 135.55608887 -10.73841309 134.70836914 -10.73583984 133.83496094 C-10.72673584 132.75682129 -10.71763184 131.67868164 -10.70825195 130.56787109 C-10.68762695 127.14412109 -10.66700195 123.72037109 -10.64575195 120.19287109 C-17.57575195 120.19287109 -24.50575195 120.19287109 -31.64575195 120.19287109 C-31.48809653 126.8794507 -31.48809653 126.8794507 -31.28540039 133.56469727 C-31.233361 137.94146189 -31.22046819 140.49255878 -33.53637695 144.30615234 C-36.59477441 147.04171896 -38.20899822 147.31588852 -42.21606445 147.29052734 C-43.11196289 147.28730469 -44.00786133 147.28408203 -44.9309082 147.28076172 C-45.86805664 147.27238281 -46.80520508 147.26400391 -47.77075195 147.25537109 C-48.71563477 147.25085938 -49.66051758 147.24634766 -50.6340332 147.24169922 C-52.97129965 147.22989484 -55.30853364 147.21195908 -57.64575195 147.19287109 C-57.64575195 153.46287109 -57.64575195 159.73287109 -57.64575195 166.19287109 C-56.26000977 166.14646484 -54.87426758 166.10005859 -53.4465332 166.05224609 C-51.61712771 166.01471983 -49.78769886 165.97832058 -47.95825195 165.94287109 C-47.04624023 165.90935547 -46.13422852 165.87583984 -45.19458008 165.84130859 C-40.828054 165.77779549 -38.35850074 165.75564624 -34.5637207 168.08349609 C-31.70760878 171.22463751 -31.51396191 172.96101637 -31.46875 177.11401367 C-31.44949715 178.65119804 -31.44949715 178.65119804 -31.42985535 180.21943665 C-31.42246841 181.33086533 -31.41508148 182.44229401 -31.4074707 183.58740234 C-31.39939896 184.72690842 -31.39132721 185.86641449 -31.38301086 187.04045105 C-31.36916208 189.4555814 -31.3584435 191.8707314 -31.35058594 194.28588867 C-31.3333708 197.97986934 -31.28949001 201.67295581 -31.24536133 205.36669922 C-31.2352349 207.71109367 -31.22671864 210.05549574 -31.2199707 212.39990234 C-31.20246262 213.50525833 -31.18495453 214.61061432 -31.16691589 215.74946594 C-31.18864113 223.42976774 -31.18864113 223.42976774 -33.54736328 227.36743164 C-36.61485174 230.03591462 -38.3117548 230.32559674 -42.29150391 230.38574219 C-43.25623123 230.40180511 -44.22095856 230.41786804 -45.21492004 230.43441772 C-49.62895033 230.47883623 -54.04282979 230.5199311 -58.45703125 230.54296875 C-60.78590891 230.55953283 -63.11473565 230.58682851 -65.44335938 230.625 C-68.79885263 230.67973111 -72.15315386 230.70163757 -75.5090332 230.71630859 C-77.06863518 230.75031265 -77.06863518 230.75031265 -78.65974426 230.78500366 C-83.09659916 230.77202336 -85.89739165 230.61688406 -89.80249023 228.40429688 C-92.63282226 223.47314622 -92.34098596 218.878809 -92.2746582 213.28662109 C-92.27707016 212.12916382 -92.27948212 210.97170654 -92.28196716 209.7791748 C-92.28098876 207.33484466 -92.26759694 204.89049235 -92.24267578 202.44628906 C-92.2083733 198.70610228 -92.22201817 194.96827871 -92.24145508 191.22802734 C-92.23455651 188.85171521 -92.22488404 186.47540917 -92.2121582 184.09912109 C-92.21711807 182.98130249 -92.22207794 181.86348389 -92.22718811 180.71179199 C-92.10975304 172.96563304 -92.10975304 172.96563304 -89.73535156 169.01123047 C-86.67614454 166.34912346 -85.04179096 166.07011135 -81.07543945 166.09521484 C-80.17954102 166.0984375 -79.28364258 166.10166016 -78.3605957 166.10498047 C-77.42344727 166.11335937 -76.48629883 166.12173828 -75.52075195 166.13037109 C-74.57586914 166.13488281 -73.63098633 166.13939453 -72.6574707 166.14404297 C-70.32020426 166.15584734 -67.98297026 166.1737831 -65.64575195 166.19287109 C-65.64575195 159.92287109 -65.64575195 153.65287109 -65.64575195 147.19287109 C-67.03149414 147.23927734 -68.41723633 147.28568359 -69.8449707 147.33349609 C-71.67437619 147.37102236 -73.50380504 147.4074216 -75.33325195 147.44287109 C-76.24526367 147.47638672 -77.15727539 147.50990234 -78.09692383 147.54443359 C-82.4634499 147.6079467 -84.93300317 147.63009595 -88.7277832 145.30224609 C-91.58389512 142.16110468 -91.777542 140.42472582 -91.82275391 136.27172852 C-91.83558914 135.24693893 -91.84842438 134.22214935 -91.86164856 133.16630554 C-91.86903549 132.05487686 -91.87642242 130.94344818 -91.8840332 129.79833984 C-91.89210495 128.65883377 -91.9001767 127.5193277 -91.90849304 126.34529114 C-91.92234182 123.93016078 -91.93306041 121.51501079 -91.94091797 119.09985352 C-91.95813311 115.40587285 -92.00201389 111.71278638 -92.04614258 108.01904297 C-92.05626901 105.67464852 -92.06478527 103.33024645 -92.0715332 100.98583984 C-92.09779533 99.32780586 -92.09779533 99.32780586 -92.12458801 97.63627625 C-92.10286277 89.95597445 -92.10286277 89.95597445 -89.74414062 86.01831055 C-86.70177371 83.37168141 -85.03646931 83.06247562 -81.09179688 83.01586914 C-80.1470903 83.00303391 -79.20238373 82.99019867 -78.22904968 82.97697449 C-77.20511612 82.96958755 -76.18118256 82.96220062 -75.1262207 82.95458984 C-74.07549881 82.9465181 -73.02477692 82.93844635 -71.94221497 82.93013 C-69.71539972 82.91628295 -67.48856319 82.90556359 -65.26171875 82.89770508 C-61.8574192 82.88049328 -58.45409085 82.83661196 -55.05004883 82.79248047 C-52.8879466 82.78235364 -50.72583611 82.77383751 -48.5637207 82.76708984 C-47.0369294 82.74082771 -47.0369294 82.74082771 -45.47929382 82.71403503 C-38.3957197 82.73575404 -38.3957197 82.73575404 -34.52587891 85.09448242 C-31.61717322 88.34085632 -31.52461389 90.1457444 -31.5480957 94.41943359 C-31.55131836 95.45068359 -31.55454102 96.48193359 -31.55786133 97.54443359 C-31.57042969 99.16478516 -31.57042969 99.16478516 -31.58325195 100.81787109 C-31.58776367 101.90583984 -31.59227539 102.99380859 -31.59692383 104.11474609 C-31.60873405 106.80747772 -31.6266699 109.50018118 -31.64575195 112.19287109 C-24.71575195 112.19287109 -17.78575195 112.19287109 -10.64575195 112.19287109 C-10.6921582 110.59056641 -10.73856445 108.98826172 -10.78637695 107.33740234 C-10.82389977 105.22674392 -10.86029938 103.11606531 -10.89575195 101.00537109 C-10.92926758 99.95027344 -10.9627832 98.89517578 -10.99731445 97.80810547 C-11.09647077 89.94996697 -11.09647077 89.94996697 -8.75512695 86.01708984 C-5.68096578 83.35850972 -4.05161598 83.07004917 -0.07543945 83.09521484 C0.82045898 83.0984375 1.71635742 83.10166016 2.6394043 83.10498047 C4.04512695 83.11754883 4.04512695 83.11754883 5.47924805 83.13037109 C6.42413086 83.13488281 7.36901367 83.13939453 8.3425293 83.14404297 C10.67979574 83.15584734 13.01702974 83.1737831 15.35424805 83.19287109 C15.35424805 76.92287109 15.35424805 70.65287109 15.35424805 64.19287109 C9.32612013 64.31103567 9.32612013 64.31103567 3.29882812 64.46313477 C-1.46613305 64.51017238 -4.87261447 64.45315494 -8.64575195 61.19287109 C-10.55157892 58.10827548 -10.90517942 55.73471438 -10.9362793 52.13647461 C-10.949039 51.13185684 -10.96179871 50.12723907 -10.97494507 49.09217834 C-10.97717072 48.01294601 -10.97939636 46.93371368 -10.98168945 45.82177734 C-10.99167465 44.15005714 -10.99167465 44.15005714 -11.00186157 42.44456482 C-11.01198309 40.0884669 -11.01667875 37.73234034 -11.01635742 35.3762207 C-11.0207314 31.77230634 -11.05706036 28.16961575 -11.0949707 24.56591797 C-11.10083875 22.27620861 -11.10480822 19.98649344 -11.10668945 17.69677734 C-11.12106049 16.61956924 -11.13543152 15.54236115 -11.15023804 14.43251038 C-11.10457312 6.95359165 -11.10457312 6.95359165 -8.74194336 3.03637695 C-5.68083888 0.34427354 -3.98800245 0.06027018 0 0 Z M-4.64575195 102.19287109 C-4.70762695 108.07099609 -4.76950195 113.94912109 -4.83325195 120.00537109 C-4.86056396 121.85751221 -4.88787598 123.70965332 -4.91601562 125.61791992 C-4.92477792 127.08690743 -4.93242247 128.55590221 -4.9387207 130.02490234 C-4.9540686 130.78685913 -4.9694165 131.54881592 -4.98522949 132.3338623 C-5.07322049 136.3662193 -5.07322049 136.3662193 -3.39047241 139.89743042 C-1.22338936 141.50647186 -0.0704667 141.5674318 2.61035156 141.56518555 C3.46456192 141.57141434 4.31877228 141.57764313 5.1988678 141.58406067 C6.57708961 141.57024605 6.57708961 141.57024605 7.9831543 141.55615234 C8.92859604 141.55665085 9.87403778 141.55714935 10.84812927 141.55766296 C12.84620262 141.55532271 14.84427893 141.54559704 16.84228516 141.52905273 C19.90838837 141.50543549 22.97362374 141.50849519 26.03979492 141.51513672 C27.97925325 141.50956089 29.91870791 141.50245161 31.8581543 141.49365234 C33.23941246 141.49501945 33.23941246 141.49501945 34.64857483 141.49641418 C35.49963303 141.48688217 36.35069122 141.47735016 37.22753906 141.4675293 C37.97793961 141.46292191 38.72834015 141.45831451 39.5014801 141.4535675 C41.60055254 141.34769014 41.60055254 141.34769014 43.35424805 139.19287109 C43.52944064 136.39694805 43.58582168 133.69877072 43.54956055 130.90380859 C43.54754639 130.17846924 43.54553223 129.45312988 43.54345703 128.70581055 C43.53298324 125.99309985 43.50506065 123.2804792 43.47924805 120.56787109 C43.41737305 111.47224609 43.41737305 111.47224609 43.35424805 102.19287109 C27.51424805 102.19287109 11.67424805 102.19287109 -4.64575195 102.19287109 Z M76.35424805 102.19287109 C76.29237305 108.07099609 76.23049805 113.94912109 76.16674805 120.00537109 C76.13943604 121.85751221 76.11212402 123.70965332 76.08398438 125.61791992 C76.07522208 127.08690743 76.06757753 128.55590221 76.0612793 130.02490234 C76.0459314 130.78685913 76.0305835 131.54881592 76.01477051 132.3338623 C75.92677951 136.3662193 75.92677951 136.3662193 77.60952759 139.89743042 C79.77661064 141.50647186 80.9295333 141.5674318 83.61035156 141.56518555 C84.46456192 141.57141434 85.31877228 141.57764313 86.1988678 141.58406067 C87.57708961 141.57024605 87.57708961 141.57024605 88.9831543 141.55615234 C89.92859604 141.55665085 90.87403778 141.55714935 91.84812927 141.55766296 C93.84620262 141.55532271 95.84427893 141.54559704 97.84228516 141.52905273 C100.90838837 141.50543549 103.97362374 141.50849519 107.03979492 141.51513672 C108.97925325 141.50956089 110.91870791 141.50245161 112.8581543 141.49365234 C114.23941246 141.49501945 114.23941246 141.49501945 115.64857483 141.49641418 C116.49963303 141.48688217 117.35069122 141.47735016 118.22753906 141.4675293 C118.97793961 141.46292191 119.72834015 141.45831451 120.5014801 141.4535675 C122.60055254 141.34769014 122.60055254 141.34769014 124.35424805 139.19287109 C124.52944064 136.39694805 124.58582168 133.69877072 124.54956055 130.90380859 C124.54754639 130.17846924 124.54553223 129.45312988 124.54345703 128.70581055 C124.53298324 125.99309985 124.50506065 123.2804792 124.47924805 120.56787109 C124.41737305 111.47224609 124.41737305 111.47224609 124.35424805 102.19287109 C108.51424805 102.19287109 92.67424805 102.19287109 76.35424805 102.19287109 Z M50.35424805 120.19287109 C50.1448023 126.22011432 50.1448023 126.22011432 49.96630859 132.24829102 C49.76004862 136.97621122 49.46215344 140.39103908 46.35424805 144.19287109 C39.9211605 148.48159612 31.07621062 146.80677296 23.35424805 147.19287109 C23.35424805 163.36287109 23.35424805 179.53287109 23.35424805 196.19287109 C38.86424805 196.19287109 54.37424805 196.19287109 70.35424805 196.19287109 C70.48499543 188.5199432 70.48499543 188.5199432 70.56201172 180.84643555 C70.69788423 176.19757114 70.86175156 173.02446353 73.26049805 168.97412109 C77.69973577 166.41819634 81.62207911 166.41245733 86.66674805 166.38037109 C87.5980957 166.35523438 88.52944336 166.33009766 89.48901367 166.30419922 C91.776974 166.24553357 94.06565553 166.21628925 96.35424805 166.19287109 C96.35424805 159.92287109 96.35424805 153.65287109 96.35424805 147.19287109 C94.96850586 147.17869141 93.58276367 147.16451172 92.1550293 147.14990234 C90.32556926 147.10299311 88.4961432 147.05474577 86.66674805 147.00537109 C85.29873047 146.99666992 85.29873047 146.99666992 83.90307617 146.98779297 C79.61825189 146.84756236 76.97664209 146.5700796 73.26049805 144.31787109 C70.47591189 139.75297575 70.57351324 135.6357451 70.54174805 130.38037109 C70.51661133 129.40132812 70.49147461 128.42228516 70.46557617 127.41357422 C70.40688175 125.0071028 70.37765902 122.59994435 70.35424805 120.19287109 C63.75424805 120.19287109 57.15424805 120.19287109 50.35424805 120.19287109 Z M-85.64575195 185.19287109 C-85.68700195 191.25662109 -85.72825195 197.32037109 -85.77075195 203.56787109 C-85.78895996 205.48132324 -85.80716797 207.39477539 -85.82592773 209.36621094 C-85.83176762 210.87874063 -85.83686437 212.39127346 -85.84106445 213.90380859 C-85.85129639 214.69247314 -85.86152832 215.4811377 -85.87207031 216.29370117 C-85.87270367 218.26153761 -85.76881527 220.22888635 -85.64575195 222.19287109 C-83.23948975 224.5991333 -82.69468018 224.44488569 -79.41137695 224.45166016 C-78.53707031 224.45796448 -77.66276367 224.4642688 -76.76196289 224.47076416 C-75.34318848 224.46469147 -75.34318848 224.46469147 -73.89575195 224.45849609 C-72.44217285 224.46136627 -72.44217285 224.46136627 -70.95922852 224.46429443 C-68.90811911 224.46565689 -66.8570011 224.46195627 -64.8059082 224.45361328 C-61.65857656 224.44291469 -58.51181575 224.45350663 -55.36450195 224.46630859 C-53.37491735 224.46498701 -51.38533311 224.46242464 -49.39575195 224.45849609 C-47.97697754 224.46456879 -47.97697754 224.46456879 -46.52954102 224.47076416 C-45.65523437 224.46445984 -44.78092773 224.45815552 -43.88012695 224.45166016 C-42.72335449 224.44927338 -42.72335449 224.44927338 -41.54321289 224.44683838 C-39.40412612 224.35594529 -39.40412612 224.35594529 -37.64575195 222.19287109 C-37.47055936 219.39694805 -37.41417832 216.69877072 -37.45043945 213.90380859 C-37.45245361 213.17846924 -37.45446777 212.45312988 -37.45654297 211.70581055 C-37.46701676 208.99309985 -37.49493935 206.2804792 -37.52075195 203.56787109 C-37.58262695 194.47224609 -37.58262695 194.47224609 -37.64575195 185.19287109 C-53.48575195 185.19287109 -69.32575195 185.19287109 -85.64575195 185.19287109 Z " fill="#414446" transform="translate(103.645751953125,1.80712890625)"/>
<path d="M0 0 C16.17 0 32.34 0 49 0 C49.061875 6.043125 49.12375 12.08625 49.1875 18.3125 C49.22846802 21.16902222 49.22846802 21.16902222 49.27026367 24.08325195 C49.27902578 25.59325526 49.28667037 27.10326565 49.29296875 28.61328125 C49.30831665 29.39682983 49.32366455 30.18037842 49.33947754 30.9876709 C49.34215451 36.53167993 49.34215451 36.53167993 47.75045776 38.71029663 C45.5571063 40.3263155 44.35972155 40.37453075 41.65209961 40.37231445 C40.34075294 40.38165764 40.34075294 40.38165764 39.00291443 40.39118958 C38.0622261 40.38197983 37.12153778 40.37277008 36.15234375 40.36328125 C34.70088707 40.36402901 34.70088707 40.36402901 33.22010803 40.36479187 C31.17495672 40.36245144 29.12980253 40.35272478 27.0847168 40.33618164 C23.94619134 40.3125654 20.80851372 40.31562388 17.66992188 40.32226562 C15.68489075 40.31668978 13.69986321 40.30958049 11.71484375 40.30078125 C10.30077492 40.30214836 10.30077492 40.30214836 8.85813904 40.30354309 C7.55152061 40.28924507 7.55152061 40.28924507 6.21850586 40.2746582 C5.06625771 40.26774712 5.06625771 40.26774712 3.89073181 40.26069641 C2 40 2 40 0 38 C-0.17526775 35.1320166 -0.23151811 32.35927278 -0.1953125 29.4921875 C-0.19329834 28.74718994 -0.19128418 28.00219238 -0.18920898 27.23461914 C-0.1787341 24.44801692 -0.15081152 21.66150236 -0.125 18.875 C-0.08375 12.64625 -0.0425 6.4175 0 0 Z " fill="#41AAD9" transform="translate(180,187)"/>
<path d="M0 0 C16.17 0 32.34 0 49 0 C49.061875 6.22875 49.12375 12.4575 49.1875 18.875 C49.22846802 21.82348877 49.22846802 21.82348877 49.27026367 24.83154297 C49.27902336 26.38508489 49.28666852 27.93863366 49.29296875 29.4921875 C49.30831665 30.30244385 49.32366455 31.1127002 49.33947754 31.94750977 C49.34057617 34.28466797 49.34057617 34.28466797 49 38 C45.9213599 40.05242673 45.24331703 40.25503162 41.75976562 40.29052734 C40.90878296 40.30328705 40.05780029 40.31604675 39.18103027 40.32919312 C37.80751404 40.33253159 37.80751404 40.33253159 36.40625 40.3359375 C34.9916449 40.3459227 34.9916449 40.3459227 33.54846191 40.35610962 C31.55462597 40.36623428 29.56075615 40.3709267 27.56689453 40.37060547 C24.51147964 40.37498355 21.45750346 40.41131843 18.40234375 40.44921875 C16.46615078 40.45508588 14.52995094 40.45905597 12.59375 40.4609375 C11.22023376 40.48249405 11.22023376 40.48249405 9.81896973 40.50448608 C3.63277568 40.45975514 3.63277568 40.45975514 0.91870117 38.48779297 C-0.40302356 34.90863404 -0.36921745 31.49437628 -0.29296875 27.734375 C-0.28843689 26.67887451 -0.28843689 26.67887451 -0.28381348 25.60205078 C-0.26816936 22.98455038 -0.22628524 20.36725979 -0.1875 17.75 C-0.125625 11.8925 -0.06375 6.035 0 0 Z " fill="#41A9D9" transform="translate(17,104)"/>
<path d="M0 0 C16.17 0 32.34 0 49 0 C49.04125 5.878125 49.0825 11.75625 49.125 17.8125 C49.14320801 19.66464111 49.16141602 21.51678223 49.18017578 23.42504883 C49.18601733 24.89404002 49.19111369 26.36303445 49.1953125 27.83203125 C49.20554443 28.59398804 49.21577637 29.35594482 49.22631836 30.14099121 C49.22758592 33.9721816 49.17807268 35.73289098 47 39 C45.0645752 39.3742218 45.0645752 39.3742218 42.67382812 39.37231445 C41.33233704 39.38165764 41.33233704 39.38165764 39.96374512 39.39118958 C38.99602173 39.38197983 38.02829834 39.37277008 37.03125 39.36328125 C35.54437683 39.36402901 35.54437683 39.36402901 34.02746582 39.36479187 C31.92926023 39.36244874 29.83105198 39.35270623 27.73291016 39.33618164 C24.51309188 39.3125959 21.29410138 39.31561806 18.07421875 39.32226562 C16.03905754 39.31668894 14.00389983 39.30957911 11.96875 39.30078125 C11.00102661 39.30169266 10.03330322 39.30260406 9.03625488 39.30354309 C8.14192749 39.29401108 7.2476001 39.28447906 6.32617188 39.2746582 C5.14275208 39.26774712 5.14275208 39.26774712 3.9354248 39.26069641 C2 39 2 39 0 37 C-0.17519259 34.20407695 -0.23157363 31.50589963 -0.1953125 28.7109375 C-0.19329834 27.98559814 -0.19128418 27.26025879 -0.18920898 26.51293945 C-0.1787352 23.80022875 -0.15081261 21.08760811 -0.125 18.375 C-0.08375 12.31125 -0.0425 6.2475 0 0 Z " fill="#41AADA" transform="translate(99,21)"/>
</svg>
