<?xml version="1.0" encoding="UTF-8"?>
<svg version="1.1" xmlns="http://www.w3.org/2000/svg" width="300" height="300">
<path d="M0 0 C30.85199182 26.334961 49.2765977 61.60197322 52.75 102.125 C52.85236564 104.08243076 52.93741744 106.04089375 53 108 C53.03996094 108.845625 53.07992188 109.69125 53.12109375 110.5625 C54.14442863 150.051187 37.71648601 185.48146888 12.3046875 214.8125 C11 216 11 216 9 216 C9 216.66 9 217.32 9 218 C-13.78487955 243.79711786 -52.71915652 256.6909694 -85.88671875 258.8359375 C-86.91410156 258.89007813 -87.94148437 258.94421875 -89 259 C-89.89332031 259.05414063 -90.78664062 259.10828125 -91.70703125 259.1640625 C-114.41791274 259.87885419 -137.73335224 253.99014442 -158 244 C-159.73056641 243.14728516 -159.73056641 243.14728516 -161.49609375 242.27734375 C-173.94879679 235.83831355 -184.53474303 227.22037019 -195 218 C-195.70769531 217.37867188 -196.41539062 216.75734375 -197.14453125 216.1171875 C-218.12501992 196.41761287 -231.22485824 168.85998037 -237 141 C-237.22558594 139.96875 -237.45117188 138.9375 -237.68359375 137.875 C-244.29564418 101.39472175 -235.53911802 61.74697152 -215 31 C-211.55304605 26.15477826 -207.8218106 21.55218234 -204 17 C-203.23558594 16.08089844 -202.47117188 15.16179688 -201.68359375 14.21484375 C-193.4097858 4.6385401 -183.33347385 -2.78438464 -173 -10 C-172.1853125 -10.58523437 -171.370625 -11.17046875 -170.53125 -11.7734375 C-119.71493532 -46.43518301 -46.00556267 -38.71599909 0 0 Z " fill="#FF6C37" transform="translate(241,35)"/>
<path d="M0 0 C3.44056391 -0.32955593 5.28054975 -0.26994337 8.1015625 1.8671875 C9.84882785 3.61445285 11.47699697 5.39115722 13.0390625 7.3046875 C-3.54748063 24.99700017 -26.99428563 36.65042503 -47.9609375 48.3046875 C-47.6309375 52.9246875 -47.3009375 57.5446875 -46.9609375 62.3046875 C-52.25105874 57.89625313 -57.14902178 53.22908956 -61.9609375 48.3046875 C-56.5791778 41.82074341 -50.6855965 35.96825961 -44.68164062 30.06445312 C-39.8829656 25.31445443 -35.36018771 20.42407103 -30.9609375 15.3046875 C-19.41831716 2.14172201 -19.41831716 2.14172201 -11.19921875 1.39453125 C-10.09126953 1.35005859 -10.09126953 1.35005859 -8.9609375 1.3046875 C-7.1665625 0.9953125 -7.1665625 0.9953125 -5.3359375 0.6796875 C-3.55388662 0.48168185 -1.77175769 0.27529303 0 0 Z " fill="#FFFCFB" transform="translate(135.9609375,165.6953125)"/>
<path d="M0 0 C2.4375 1.5 2.4375 1.5 4 3 C3.12250092 3.55218201 2.24500183 4.10436401 1.34091187 4.67327881 C-1.94801805 6.87059184 -4.66038181 9.41970075 -7.45458984 12.22753906 C-7.96265167 12.73530884 -8.4707135 13.24307861 -8.99417114 13.76623535 C-10.65455146 15.42799718 -12.30775454 17.09670551 -13.9609375 18.765625 C-15.11777638 19.92619821 -16.27506072 21.08632754 -17.43276978 22.24603271 C-20.46537264 25.28623897 -23.49191868 28.33240503 -26.51721191 31.37988281 C-29.61067985 34.49388037 -32.70988085 37.60216068 -35.80859375 40.7109375 C-41.87799816 46.80173366 -47.94101121 52.8988426 -54 59 C-57.18086518 57.49053489 -59.29869906 55.92058175 -61.75 53.375 C-62.36359375 52.74335938 -62.9771875 52.11171875 -63.609375 51.4609375 C-64.06828125 50.97882813 -64.5271875 50.49671875 -65 50 C-63.54844106 46.66421487 -61.72074062 44.47501397 -59.1484375 41.91796875 C-58.37886719 41.15033203 -57.60929688 40.38269531 -56.81640625 39.59179688 C-55.60791016 38.40166992 -55.60791016 38.40166992 -54.375 37.1875 C-53.59253906 36.40568359 -52.81007812 35.62386719 -52.00390625 34.81835938 C-47.16119658 30.01178933 -42.17737907 25.4413926 -37 21 C-35.94288824 20.06506937 -34.88682823 19.12894765 -33.83203125 18.19140625 C-11.86072697 -1.05899348 -11.86072697 -1.05899348 0 0 Z " fill="#FFFBF9" transform="translate(187,90)"/>
<path d="M0 0 C3.28540039 0.86328125 3.28540039 0.86328125 5.28540039 1.98828125 C6.95020823 5.10979595 6.07417398 7.50921696 5.28540039 10.86328125 C3.16821289 13.41796875 3.16821289 13.41796875 0.41040039 15.73828125 C-0.58991211 16.59421875 -1.59022461 17.45015625 -2.62084961 18.33203125 C-6.34892518 21.3822749 -10.08190526 24.42580974 -13.83178711 27.44921875 C-17.06140838 30.15369835 -20.14074805 32.98482461 -23.21459961 35.86328125 C-27.9842058 40.32969882 -32.89364352 44.52503226 -37.99194336 48.6171875 C-42.72560848 52.52229144 -47.21389149 56.69337953 -51.71459961 60.86328125 C-54.57518871 59.5039104 -56.5738766 58.21807656 -58.71459961 55.86328125 C-57.15524328 52.12266313 -54.84405283 49.74862489 -51.98803711 46.90625 C-51.28827255 46.20717278 -51.28827255 46.20717278 -50.57437134 45.49397278 C-49.58653221 44.5091478 -48.59627066 43.52674744 -47.60375977 42.54663086 C-46.11026914 41.07120082 -44.62474211 39.58812385 -43.14038086 38.10351562 C-39.10581954 34.08472968 -35.07161673 30.10094848 -30.72631836 26.4140625 C-27.32656439 23.50564522 -24.23181537 20.34916788 -21.14819336 17.11328125 C-20.15809387 16.08320366 -19.16785818 15.05325698 -18.17749023 14.0234375 C-16.65101624 12.43495591 -15.13191339 10.84162194 -13.62988281 9.22998047 C-12.15433761 7.65146813 -10.65449168 6.09989889 -9.14819336 4.55078125 C-8.27219482 3.62652344 -7.39619629 2.70226562 -6.49365234 1.75 C-3.71459961 -0.13671875 -3.71459961 -0.13671875 0 0 Z " fill="#FFFBF9" transform="translate(193.714599609375,97.13671875)"/>
<path d="M0 0 C1.21171875 -0.02578125 2.4234375 -0.0515625 3.671875 -0.078125 C7.5248711 0.27520652 9.93175572 1.31605395 13.25 3.25 C11.79254576 6.61335594 9.93882146 8.79534005 7.3359375 11.359375 C6.57539063 12.11347656 5.81484375 12.86757812 5.03125 13.64453125 C4.2371875 14.42183594 3.443125 15.19914062 2.625 16 C1.42230469 17.18916016 1.42230469 17.18916016 0.1953125 18.40234375 C-1.78202846 20.35614493 -3.76388909 22.30512103 -5.75 24.25 C-3.56080563 28.02217442 -1.30683078 30.93719745 1.8125 34 C2.59753906 34.77859375 3.38257813 35.5571875 4.19140625 36.359375 C6.10782262 38.29375674 6.10782262 38.29375674 8.25 39.25 C8.25 39.91 8.25 40.57 8.25 41.25 C3.7949474 43.4775263 -2.348071 42.92925079 -7.04296875 41.6015625 C-13.29116606 38.7735583 -18.18737829 33.63325772 -20.75 27.25 C-21.53616628 20.85097211 -21.45413214 14.67276725 -18.1640625 9.00390625 C-13.19704751 2.84316113 -7.75115302 0.09811586 0 0 Z " fill="#FFFAF9" transform="translate(212.75,56.75)"/>
<path d="M0 0 C0.495 0.99 0.495 0.99 1 2 C-4.69442084 15.85359099 -14.88129838 27.2622816 -25.51171875 37.546875 C-27.65950061 39.66431144 -29.62394229 41.81870652 -31.5625 44.125 C-35.60727283 48.8800744 -40.2969311 52.9120206 -45 57 C-48.76488042 55.27845212 -51.15063897 53.00765886 -54 50 C-52.40079613 45.81823086 -49.31127151 43.23266014 -46.0625 40.3125 C-45.47984375 39.78140625 -44.8971875 39.2503125 -44.296875 38.703125 C-39.93229281 34.75693413 -35.41214337 31.0352976 -30.82421875 27.3515625 C-26.39883131 23.66680007 -22.22159147 19.7236461 -18.01171875 15.796875 C-14.41559933 12.44423698 -10.73098728 9.20148035 -7 6 C-5.99066406 5.13181641 -5.99066406 5.13181641 -4.9609375 4.24609375 C-3.30946393 2.82819513 -1.65506671 1.41370281 0 0 Z " fill="#FFFAF9" transform="translate(199,113)"/>
<path d="M0 0 C5.50135782 6.74359991 5.58041647 11.34651812 5 20 C3.37031634 24.80327816 0.71140634 27.5895185 -3 31 C-7.91935902 26.88380164 -12.52647956 22.59589638 -17 18 C-11.72898586 11.58930713 -5.90871848 5.81409488 0 0 Z " fill="#FFFBFA" transform="translate(229,64)"/>
<path d="M0 0 C5.22291906 2.61145953 9.12387365 6.71029192 13 11 C13 11.33 13 11.66 13 12 C5.27227893 12.13690844 -2.30881404 11.75166913 -10 11 C-6.79239749 7.19364503 -3.59253891 3.45436433 0 0 Z " fill="#FFF7F4" transform="translate(70,217)"/>
<path d="M0 0 C3.21043882 1.38188453 5.04936365 2.92421903 7.25 5.625 C7.77078125 6.25664062 8.2915625 6.88828125 8.828125 7.5390625 C9.40820312 8.26222656 9.40820312 8.26222656 10 9 C7.43923903 9.67404284 4.87673417 10.339414 2.3125 11 C1.59126953 11.19078125 0.87003906 11.3815625 0.12695312 11.578125 C-3.66850961 12.54865428 -7.04615439 13.24955239 -11 13 C-10.62488281 12.56429687 -10.24976562 12.12859375 -9.86328125 11.6796875 C-6.54140223 7.81392401 -3.25357073 3.92342352 0 0 Z " fill="#FFF5F2" transform="translate(117,142)"/>
<path d="M0 0 C3.78496138 1.51398455 4.0072198 2.0144396 6 6 C0.06 6.495 0.06 6.495 -6 7 C-6 6.34 -6 5.68 -6 5 C-4.04072937 3.2856382 -2.04119788 1.61594832 0 0 Z " fill="#FFE7DF" transform="translate(131,156)"/>
<path d="M0 0 C0.99 0.33 1.98 0.66 3 1 C4.3442623 6.37704918 4.3442623 6.37704918 2.6875 9.375 C1 11 1 11 -1 11 C-0.67 7.37 -0.34 3.74 0 0 Z " fill="#FF7D4E" transform="translate(227,74)"/>
</svg>
