<?xml version="1.0" encoding="UTF-8"?>
<svg version="1.1" xmlns="http://www.w3.org/2000/svg" width="262" height="300">
<path d="M0 0 C3.6361247 1.43883462 6.96886267 3.25394339 10.359375 5.1953125 C11.52593628 5.85309692 11.52593628 5.85309692 12.71606445 6.52416992 C20.28913222 10.81426575 27.79589091 15.22002412 35.30566406 19.61962891 C46.93727112 26.4270756 58.68196016 33.03104451 70.43359375 39.62841797 C83.70693479 47.0823573 96.87471853 54.6886678 109.95751953 62.47216797 C112.52291431 63.99360236 115.09405016 65.50475579 117.66796875 67.01171875 C118.46219238 67.47682861 119.25641602 67.94193848 120.07470703 68.42114258 C121.5607264 69.29055442 123.04734843 70.1589373 124.53466797 71.02612305 C129.43683941 73.89777691 129.43683941 73.89777691 130.546875 75.0078125 C130.69601043 76.92384368 130.77552942 78.84531045 130.82862854 80.7664032 C130.86468704 82.01808289 130.90074554 83.26976257 130.93789673 84.55937195 C130.97264041 85.95974017 131.00708457 87.36011584 131.04125977 88.76049805 C131.08024308 90.2255989 131.11933353 91.6906969 131.15852356 93.15579224 C131.50542619 106.57801118 131.70905335 120.00286411 131.87249851 133.42843914 C131.98500636 142.45262531 132.14237452 151.47146203 132.41235352 160.49243164 C132.64788685 168.36414783 132.79750784 176.23209346 132.84566921 184.10726768 C132.87397336 188.27388792 132.94309471 192.43019635 133.11496162 196.59357262 C134.11251714 221.77771984 134.11251714 221.77771984 128.26044846 228.72031021 C122.62742686 233.31258773 116.43189617 236.14184233 109.68514824 238.72522926 C104.53174726 240.83137656 99.83375663 243.6866788 95.046875 246.5078125 C93.14006085 247.58564827 91.23143387 248.66028874 89.3203125 249.73046875 C83.40206826 253.07543226 77.53521823 256.50528062 71.671875 259.9453125 C62.49190691 265.32914294 53.23719979 270.56312572 43.93798828 275.73779297 C35.42803451 280.48514196 27.00023048 285.36479473 18.59960938 290.30273438 C16.77392924 291.37524194 14.94528541 292.44272546 13.11328125 293.50439453 C11.41918867 294.49680531 9.73885916 295.51314152 8.07421875 296.55419922 C7.30207031 297.02229004 6.52992188 297.49038086 5.734375 297.97265625 C5.06792969 298.39023193 4.40148437 298.80780762 3.71484375 299.23803711 C-0.13466914 300.60487429 -3.32821256 299.53604578 -6.92480469 297.84716797 C-7.73336914 297.36135254 -8.54193359 296.87553711 -9.375 296.375 C-10.30538086 295.82336182 -11.23576172 295.27172363 -12.19433594 294.70336914 C-13.18723633 294.10258545 -14.18013672 293.50180176 -15.203125 292.8828125 C-17.34847002 291.60725127 -19.49432176 290.33254198 -21.640625 289.05859375 C-22.754375 288.39424316 -23.868125 287.72989258 -25.015625 287.04541016 C-30.71439291 283.6674331 -36.45928421 280.37097733 -42.203125 277.0703125 C-44.28149011 275.874115 -46.35962294 274.67751381 -48.4375 273.48046875 C-49.91573242 272.6299292 -49.91573242 272.6299292 -51.42382812 271.76220703 C-53.54740963 270.53235076 -55.66545463 269.2929082 -57.77929688 268.04638672 C-58.85244141 267.41361816 -59.92558594 266.78084961 -61.03125 266.12890625 C-61.9996582 265.55454834 -62.96806641 264.98019043 -63.96582031 264.38842773 C-66.46414283 262.9019622 -66.46414283 262.9019622 -69.453125 262.0078125 C-69.453125 261.3478125 -69.453125 260.6878125 -69.453125 260.0078125 C-70.22140625 259.80542969 -70.9896875 259.60304688 -71.78125 259.39453125 C-76.94264595 257.44528065 -81.47424361 254.64197821 -86.203125 251.8203125 C-88.34069129 250.55782382 -90.47872971 249.29613427 -92.6171875 248.03515625 C-93.7299707 247.37757324 -94.84275391 246.71999023 -95.98925781 246.04248047 C-99.51315535 243.96688506 -103.05490899 241.9231291 -106.6015625 239.88671875 C-107.18723999 239.55027847 -107.77291748 239.2138382 -108.37634277 238.86720276 C-111.2154418 237.23711681 -114.055908 235.60944725 -116.89746094 233.98364258 C-117.9290332 233.39091553 -118.96060547 232.79818848 -120.0234375 232.1875 C-120.92852051 231.66913574 -121.83360352 231.15077148 -122.76611328 230.61669922 C-123.65282715 230.0857666 -124.53954102 229.55483398 -125.453125 229.0078125 C-127.00018127 228.41092117 -127.00018127 228.41092117 -128.57849121 227.80197144 C-131.03642359 226.1235201 -131.4155582 225.19981803 -131.99607658 222.23276329 C-132.19623411 218.37868396 -132.19526624 214.54872893 -132.13427734 210.69238281 C-132.1325847 209.20412769 -132.1335353 207.71586756 -132.13693237 206.22761536 C-132.13865487 202.18828619 -132.10336522 198.15002467 -132.06148863 194.11094379 C-132.02399619 189.88958961 -132.02045747 185.6682113 -132.01333618 181.44671631 C-131.99468285 173.45322946 -131.94543957 165.46023461 -131.88523924 157.46696448 C-131.81818899 148.36675169 -131.7851889 139.26651548 -131.75506663 130.16611719 C-131.69234068 111.44640329 -131.5867965 92.72714744 -131.453125 74.0078125 C-123.9952596 69.74617513 -116.53739421 65.48453776 -109.07952881 61.22290039 C-108.46128235 60.8696167 -107.84303589 60.51633301 -107.20605469 60.15234375 C-95.45507812 53.4375 -83.70410156 46.72265625 -71.953125 40.0078125 C-71.37568039 39.67784271 -70.79823578 39.34787292 -70.20329285 39.00790405 C-69.0360717 38.34092345 -67.86884554 37.67395161 -66.70161438 37.00698853 C-63.79339022 35.34519683 -60.88525197 33.68325516 -57.97729492 32.02099609 C-52.62675979 28.96270259 -47.27552119 25.90566777 -41.92115784 22.8540802 C-40.07682771 21.80281522 -38.23284233 20.75094769 -36.38891602 19.69897461 C-34.00387298 18.33831466 -31.61748511 16.98005606 -29.23022461 15.62329102 C-24.14502861 12.725612 -19.08196583 9.80825134 -14.09375 6.74609375 C-12.91365356 6.02655518 -12.91365356 6.02655518 -11.7097168 5.29248047 C-10.3020797 4.42819411 -8.90171216 3.55188791 -7.51098633 2.66064453 C-4.9502354 1.09019597 -3.04334248 0.00969217 0 0 Z M-6.4921875 31.796875 C-7.53503906 32.40144531 -8.57789062 33.00601563 -9.65234375 33.62890625 C-10.78285156 34.29019531 -11.91335937 34.95148437 -13.078125 35.6328125 C-14.2588973 36.31938424 -15.4398899 37.00557724 -16.62109375 37.69140625 C-19.65445845 39.4541162 -22.68478834 41.22196722 -25.71398926 42.99182129 C-28.34231937 44.52727377 -30.9720303 46.06035732 -33.6015625 47.59375 C-36.53921076 49.30737815 -39.47656271 51.02150512 -42.41308594 52.73706055 C-55.88336259 60.60353467 -69.4071934 68.37753375 -82.92712402 76.1582489 C-85.33529975 77.54440988 -87.74303199 78.93133999 -90.1506958 80.31838989 C-91.85570734 81.30020548 -93.5613917 82.28085234 -95.26708984 83.26147461 C-96.29656738 83.85452393 -97.32604492 84.44757324 -98.38671875 85.05859375 C-99.29478271 85.58106689 -100.20284668 86.10354004 -101.13842773 86.6418457 C-102.94438701 87.70759216 -104.70833629 88.84462002 -106.453125 90.0078125 C-106.95331963 92.1723252 -106.95331963 92.1723252 -106.94174194 94.72996521 C-106.97332397 95.72651627 -107.00490601 96.72306732 -107.03744507 97.74981689 C-107.05650909 98.84743347 -107.07557312 99.94505005 -107.09521484 101.07592773 C-107.12617249 102.22897903 -107.15713013 103.38203033 -107.18902588 104.57002258 C-107.28418604 108.40202353 -107.35307828 112.23371408 -107.4140625 116.06640625 C-107.43502613 117.37474993 -107.45598976 118.68309361 -107.47758865 120.03108406 C-107.56155109 125.53401669 -107.63478331 131.03695223 -107.68395042 136.54031277 C-107.75519835 144.41275507 -107.8894816 152.27839073 -108.11129987 160.1480698 C-108.26212705 165.68873552 -108.33912404 171.22757519 -108.36281741 176.77022511 C-108.37893021 180.07806279 -108.4361872 183.37638845 -108.55369186 186.68240166 C-109.56058744 200.20255216 -109.56058744 200.20255216 -104.59401321 212.1711216 C-100.06811452 215.8046336 -95.11342019 218.07771124 -89.7102356 220.11074829 C-86.60943959 221.34312615 -83.9826067 222.97422229 -81.1796875 224.77734375 C-80.31601563 225.29232422 -79.45234375 225.80730469 -78.5625 226.33789062 C-76.8435242 227.36360024 -75.13306008 228.4036601 -73.4296875 229.45507812 C-72.5840625 229.95330078 -71.7384375 230.45152344 -70.8671875 230.96484375 C-70.1345166 231.40803955 -69.4018457 231.85123535 -68.64697266 232.30786133 C-65.58528784 233.28469756 -64.26956129 232.44813807 -61.453125 231.0078125 C-59.87939222 230.1872579 -58.32111045 229.33656819 -56.77734375 228.4609375 C-55.87975342 227.95320801 -54.98216309 227.44547852 -54.05737305 226.92236328 C-53.09484619 226.37306152 -52.13231934 225.82375977 -51.140625 225.2578125 C-50.12589111 224.68144043 -49.11115723 224.10506836 -48.06567383 223.51123047 C-39.90565029 218.8643151 -31.78750418 214.14681203 -23.68432617 209.40161133 C-18.28060423 206.23745977 -12.86901537 203.08785417 -7.44140625 199.96484375 C-6.85626755 199.62805603 -6.27112885 199.29126831 -5.66825867 198.9442749 C-2.84016958 197.31704839 -0.01096787 195.69179369 2.81958008 194.06884766 C4.83122052 192.91223752 6.83874908 191.74843451 8.84130859 190.57617188 C10.55160826 189.58474749 12.27717317 188.61881959 14.02197266 187.68945312 C18.41628415 185.2805403 18.41628415 185.2805403 20.6953125 180.921875 C20.77007812 179.83648437 20.84484375 178.75109375 20.921875 177.6328125 C21.03015625 176.49714844 21.1384375 175.36148438 21.25 174.19140625 C21.34796875 173.14082031 21.4459375 172.09023437 21.546875 171.0078125 C22.09308841 168.60837503 22.7846333 166.34898343 23.546875 164.0078125 C10.94667203 149.90758537 -5.97113337 140.3813118 -25.03125 138.79296875 C-27.94056391 139.05105305 -28.69013222 139.7041532 -30.703125 141.7578125 C-37.17067472 147.74418784 -45.24519333 150.37201291 -53.9609375 150.21484375 C-62.62876508 149.49478911 -69.29492117 146.10516451 -75.453125 140.0078125 C-81.91077315 131.99087858 -83.47284203 123.11462817 -82.453125 113.0078125 C-80.49910436 104.87581045 -76.08446536 98.15274295 -69.140625 93.4375 C-61.32938966 88.94090071 -54.45492293 88.22415082 -45.453125 89.0078125 C-41.93169584 90.01524347 -38.71843311 91.35860009 -35.453125 93.0078125 C-34.793125 93.3378125 -34.133125 93.6678125 -33.453125 94.0078125 C-31.11531555 92.96180991 -31.11531555 92.96180991 -28.484375 91.3515625 C-27.45135254 90.74868408 -26.41833008 90.14580566 -25.35400391 89.5246582 C-24.23171387 88.85909912 -23.10942383 88.19354004 -21.953125 87.5078125 C-20.78222273 86.8210321 -19.61082839 86.13509003 -18.43896484 85.44995117 C-15.99619525 84.02103112 -13.55560997 82.58847415 -11.11621094 81.15380859 C-6.54198451 78.46830574 -1.9403628 75.83093267 2.66064453 73.19165039 C14.71188198 66.27648831 26.66790284 59.21466062 38.546875 52.0078125 C35.14911377 49.16455105 31.75061056 46.86463788 27.87109375 44.73046875 C26.79537109 44.13427734 25.71964844 43.53808594 24.61132812 42.92382812 C23.49693359 42.31216797 22.38253906 41.70050781 21.234375 41.0703125 C8.75988797 34.19512766 8.75988797 34.19512766 3.87890625 31.06640625 C-0.92756911 28.09687224 -1.84522256 29.09052531 -6.4921875 31.796875 Z M59.82421875 69.578125 C58.82334229 70.13749756 57.82246582 70.69687012 56.79125977 71.27319336 C55.69998779 71.88686768 54.60871582 72.50054199 53.484375 73.1328125 C52.35765381 73.76517822 51.23093262 74.39754395 50.07006836 75.04907227 C41.55884375 79.83597857 33.10584717 84.71954115 24.68408203 89.66210938 C19.28460072 92.83084828 13.87281231 95.9752944 8.4375 99.08203125 C7.24469853 99.76503481 6.05190872 100.44805873 4.85913086 101.13110352 C2.57853606 102.4367972 0.29516827 103.73717394 -1.98999023 105.03491211 C-3.02325439 105.62667236 -4.05651855 106.21843262 -5.12109375 106.828125 C-6.03141357 107.34648926 -6.9417334 107.86485352 -7.87963867 108.39892578 C-10.58195853 110.08835637 -13.00421164 111.97197218 -15.453125 114.0078125 C-14.36515625 114.31074219 -13.2771875 114.61367187 -12.15625 114.92578125 C8.77729027 120.84599207 28.49440787 129.59543594 42.12109375 147.32421875 C44.20681195 150.13886157 44.20681195 150.13886157 46.6875 150.5234375 C47.38359375 150.43578125 48.0796875 150.348125 48.796875 150.2578125 C57.88957134 149.68670099 65.38928933 152.29878584 72.546875 158.0078125 C75.00903786 160.80619507 76.83104132 163.70638994 78.546875 167.0078125 C78.88589844 167.64589844 79.22492188 168.28398437 79.57421875 168.94140625 C82.89010175 176.2913589 82.66481839 184.74794955 79.984375 192.2578125 C76.07231608 200.77953525 70.12899231 206.31163259 61.546875 210.0078125 C54.3728852 212.36887243 45.25909618 212.25283631 38.484375 208.9453125 C37.83339844 208.56246094 37.18242187 208.17960938 36.51171875 207.78515625 C33.82366666 206.7216923 32.32481148 207.27763238 29.546875 208.0078125 C27.20294039 209.0767435 27.20294039 209.0767435 24.87109375 210.45703125 C23.524104 211.22382202 23.524104 211.22382202 22.14990234 212.00610352 C21.18777832 212.56354248 20.2256543 213.12098145 19.234375 213.6953125 C18.2232666 214.274021 17.2121582 214.85272949 16.17041016 215.44897461 C7.90246359 220.19236631 -0.33007831 224.99772896 -8.5559082 229.8137207 C-18.4780118 235.6216818 -28.45844926 241.32586458 -38.453125 247.0078125 C-38.453125 247.6678125 -38.453125 248.3278125 -38.453125 249.0078125 C-37.1094379 249.77745358 -35.76566966 250.54695299 -34.421875 251.31640625 C-33.12262085 252.06059814 -33.12262085 252.06059814 -31.79711914 252.81982422 C-29.8916566 253.90889363 -27.98457289 254.99513122 -26.07592773 256.07861328 C-21.58715679 258.6284432 -17.11635213 261.19361566 -12.70703125 263.87890625 C-11.99417969 264.30437744 -11.28132813 264.72984863 -10.546875 265.16821289 C-9.22320111 265.9597126 -7.90872061 266.76685949 -6.60546875 267.59155273 C-3.57021146 269.38223957 -2.06124359 270.16251523 1.42114258 269.27661133 C4.42352982 268.05788084 7.112006 266.69462412 9.90625 265.05859375 C10.92589844 264.465625 11.94554687 263.87265625 12.99609375 263.26171875 C14.08535156 262.62105469 15.17460937 261.98039063 16.296875 261.3203125 C17.45408472 260.64524611 18.61164357 259.97077788 19.76953125 259.296875 C22.17258082 257.89765445 24.5741142 256.49588315 26.97460938 255.09228516 C32.48474377 251.87331847 38.01700601 248.69271038 43.546875 245.5078125 C45.70841447 244.26055727 47.86987251 243.01316091 50.03125 241.765625 C54.41485294 239.23642054 58.80046811 236.71075175 63.1875 234.1875 C73.85543176 228.04871075 84.50738197 221.88495726 95.109375 215.6328125 C96.05006836 215.07899902 96.99076172 214.52518555 97.95996094 213.95458984 C98.81493164 213.44879395 99.66990234 212.94299805 100.55078125 212.421875 C101.30174072 211.9779541 102.0527002 211.5340332 102.82641602 211.07666016 C104.50838557 210.12213046 104.50838557 210.12213046 105.546875 209.0078125 C105.64272498 207.46428119 105.6687557 205.91636142 105.66712952 204.36985779 C105.66850418 203.36719879 105.66987885 202.36453979 105.67129517 201.33149719 C105.66769989 200.22235458 105.66410461 199.11321198 105.66040039 197.97045898 C105.66061943 196.2292276 105.66061943 196.2292276 105.6608429 194.45281982 C105.66014317 190.59482998 105.65234798 186.73688772 105.64453125 182.87890625 C105.64266728 180.21232522 105.64119412 177.54574686 105.64024353 174.87916565 C105.63713048 168.5645237 105.62891744 162.24989899 105.61889404 155.93526465 C105.6077321 148.74795617 105.60222225 141.56064689 105.59719861 134.3733319 C105.5867348 119.58481661 105.56913586 104.79631485 105.546875 90.0078125 C102.00086654 87.96197829 98.45485079 85.91615671 94.90882874 83.87034607 C93.70629181 83.17656279 92.50375677 82.48277626 91.30122375 81.78898621 C75.92557352 70.5665502 75.92557352 70.5665502 59.82421875 69.578125 Z " fill="#76CAE7" transform="translate(131.453125,-0.0078125)"/>
<path d="M0 0 C3.11348868 1.21232351 5.82853533 2.60208424 8.70214844 4.29980469 C9.72050781 4.89792969 10.73886719 5.49605469 11.78808594 6.11230469 C12.83738281 6.73621094 13.88667969 7.36011719 14.96777344 8.00292969 C16.00160156 8.61136719 17.03542969 9.21980469 18.10058594 9.84667969 C21.14445386 11.64079831 24.18205914 13.44505518 27.21777344 15.25292969 C28.6824707 16.12208008 28.6824707 16.12208008 30.17675781 17.00878906 C31.08232422 17.54826172 31.98789063 18.08773437 32.92089844 18.64355469 C33.72688477 19.1234082 34.53287109 19.60326172 35.36328125 20.09765625 C37.21777344 21.25292969 37.21777344 21.25292969 38.21777344 22.25292969 C38.36690886 24.16896087 38.44642786 26.09042763 38.49952698 28.01152039 C38.53558548 29.26320007 38.57164398 30.51487976 38.60879517 31.80448914 C38.64353885 33.20485735 38.67798301 34.60523303 38.7121582 36.00561523 C38.75114152 37.47071608 38.79023197 38.93581409 38.829422 40.40090942 C39.17632463 53.82312836 39.37995179 67.2479813 39.54339695 80.67355633 C39.65590479 89.69774249 39.81327296 98.71657922 40.08325195 107.73754883 C40.31878529 115.60926501 40.46840628 123.47721065 40.51656765 131.35238487 C40.54487179 135.5190051 40.61399314 139.67531354 40.78586006 143.8386898 C41.78341558 169.02283703 41.78341558 169.02283703 35.93134689 175.9654274 C30.2983253 180.55770492 24.10279461 183.38695951 17.35604668 185.97034645 C12.2026457 188.07649375 7.50465507 190.93179598 2.71777344 193.75292969 C0.81095929 194.83076546 -1.09766769 195.90540593 -3.00878906 196.97558594 C-8.92703331 200.32054945 -14.79388333 203.75039781 -20.65722656 207.19042969 C-29.83719465 212.57426013 -39.09190177 217.80824291 -48.39111328 222.98291016 C-56.90106705 227.73025915 -65.32887109 232.60991192 -73.72949219 237.54785156 C-75.55517233 238.62035913 -77.38381616 239.68784264 -79.21582031 240.74951172 C-80.90991289 241.7419225 -82.5902424 242.75825871 -84.25488281 243.79931641 C-85.02703125 244.26740723 -85.79917969 244.73549805 -86.59472656 245.21777344 C-87.26117188 245.63534912 -87.92761719 246.0529248 -88.61425781 246.4831543 C-92.46377071 247.84999148 -95.65731412 246.78116297 -99.25390625 245.09228516 C-100.46675293 244.36356201 -100.46675293 244.36356201 -101.70410156 243.62011719 C-103.09967285 242.79265991 -103.09967285 242.79265991 -104.5234375 241.94848633 C-105.51633789 241.34770264 -106.50923828 240.74691895 -107.53222656 240.12792969 C-109.67757158 238.85236846 -111.82342332 237.57765916 -113.96972656 236.30371094 C-115.08347656 235.63936035 -116.19722656 234.97500977 -117.34472656 234.29052734 C-123.04349447 230.91255029 -128.78838577 227.61609452 -134.53222656 224.31542969 C-140.81442757 220.69972566 -147.09359973 217.07895532 -153.36035156 213.43652344 C-154.32875977 212.87376709 -155.29716797 212.31101074 -156.29492188 211.73120117 C-158.15656235 210.62477861 -159.98032831 209.45419519 -161.78222656 208.25292969 C-160.89994385 208.31230713 -160.01766113 208.37168457 -159.10864258 208.43286133 C-155.34588992 208.22932748 -153.70113236 207.39046106 -150.55957031 205.37402344 C-149.60888672 204.78298828 -148.65820312 204.19195312 -147.67871094 203.58300781 C-145.70150917 202.31838173 -143.7249491 201.05275183 -141.74902344 199.78613281 C-140.32493164 198.90151367 -140.32493164 198.90151367 -138.87207031 197.99902344 C-138.01476318 197.44915771 -137.15745605 196.89929199 -136.27416992 196.33276367 C-133.23049703 195.01384869 -131.89714269 195.22663881 -128.78222656 196.25292969 C-126.93969727 197.12573242 -126.93969727 197.12573242 -125.20800781 198.18652344 C-124.54905518 198.58387695 -123.89010254 198.98123047 -123.21118164 199.390625 C-122.51275146 199.81956055 -121.81432129 200.24849609 -121.09472656 200.69042969 C-119.58502909 201.59137551 -118.07458613 202.49107307 -116.56347656 203.38964844 C-114.14898792 204.83346085 -111.73665057 206.2804803 -109.32910156 207.73583984 C-106.92884495 209.1781915 -104.51390226 210.59259959 -102.09472656 212.00292969 C-100.98254761 212.68440063 -100.98254761 212.68440063 -99.84790039 213.37963867 C-99.14173584 213.78641846 -98.43557129 214.19319824 -97.70800781 214.61230469 C-97.09352783 214.97807617 -96.47904785 215.34384766 -95.84594727 215.72070312 C-91.07754191 216.95045868 -86.42602633 213.64757049 -82.42285156 211.30371094 C-81.40320313 210.71074219 -80.38355469 210.11777344 -79.33300781 209.50683594 C-78.24375 208.86617187 -77.15449219 208.22550781 -76.03222656 207.56542969 C-74.87501684 206.8903633 -73.71745799 206.21589507 -72.55957031 205.54199219 C-70.15652074 204.14277164 -67.75498737 202.74100033 -65.35449219 201.33740234 C-59.84435779 198.11843565 -54.31209555 194.93782757 -48.78222656 191.75292969 C-46.62068709 190.50567445 -44.45922905 189.2582781 -42.29785156 188.01074219 C-37.91424862 185.48153772 -33.52863345 182.95586894 -29.14160156 180.43261719 C-28.03429687 179.79517578 -26.92699219 179.15773437 -25.78613281 178.50097656 C-23.73724002 177.32157189 -21.68783345 176.14305888 -19.63769531 174.96582031 C-17.66420161 173.82928765 -15.70659273 172.66476444 -13.7651062 171.47438049 C-10.72920406 169.68809167 -7.62802098 168.32735245 -4.37698364 166.97605896 C6.33551216 162.28939916 6.33551216 162.28939916 13.46960449 153.50739288 C15.41131196 145.43481586 14.89004486 137.18537935 14.58496094 128.95214844 C14.56633748 126.30223404 14.55639159 123.65369303 14.55789185 121.00386047 C14.54260466 114.77126611 14.41590813 108.5462889 14.24757493 102.31615335 C14.06127862 95.21610496 14.00155562 88.11667784 13.95165038 81.01456583 C13.84633143 66.42413973 13.58468213 51.83909626 13.21777344 37.25292969 C12.45520233 36.95659637 11.69263123 36.66026306 10.9069519 36.35494995 C7.71701744 35.04772082 4.83868006 33.41789232 1.85058594 31.69824219 C0.95386673 31.18401199 0.95386673 31.18401199 0.03903198 30.65939331 C-1.86148858 29.56861478 -3.75939165 28.47337294 -5.65722656 27.37792969 C-6.92398098 26.64976464 -8.19090657 25.9218973 -9.45800781 25.19433594 C-11.80527293 23.84607946 -14.15131456 22.49577919 -16.49658203 21.14404297 C-19.92101929 19.17304497 -23.35076675 17.21166929 -26.78222656 15.25292969 C-25.53930738 11.52417214 -24.52208606 11.24460976 -21.16113281 9.37011719 C-20.22591797 8.84289063 -19.29070312 8.31566406 -18.32714844 7.77246094 C-16.85084961 6.95841797 -16.85084961 6.95841797 -15.34472656 6.12792969 C-14.36439453 5.5775 -13.3840625 5.02707031 -12.37402344 4.45996094 C-2.9831199 -0.80101324 -2.9831199 -0.80101324 0 0 Z " fill="#2475BB" transform="translate(223.7822265625,52.7470703125)"/>
<path d="M0 0 C3.63610785 1.43882795 6.96891898 3.25386607 10.359375 5.1953125 C11.52158569 5.85092163 11.52158569 5.85092163 12.70727539 6.51977539 C21.37947128 11.43410483 29.98054731 16.47345553 38.57421875 21.5234375 C42.46160877 23.80323174 46.36778364 26.04204192 50.30078125 28.2421875 C51.6321814 28.99254272 51.6321814 28.99254272 52.99047852 29.75805664 C54.65900295 30.69613355 56.33249758 31.62543989 58.01147461 32.54467773 C59.90636178 33.61542946 61.73559771 34.80100629 63.546875 36.0078125 C63.546875 36.9978125 63.546875 37.9878125 63.546875 39.0078125 C60.32034809 40.80426376 57.0902068 42.59411669 53.859375 44.3828125 C52.94736328 44.89070313 52.03535156 45.39859375 51.09570312 45.921875 C49.76635742 46.65664062 49.76635742 46.65664062 48.41015625 47.40625 C47.59844971 47.85661621 46.78674316 48.30698242 45.95043945 48.77099609 C45.15726318 49.17914551 44.36408691 49.58729492 43.546875 50.0078125 C42.75071777 50.45527832 41.95456055 50.90274414 41.13427734 51.36376953 C37.3010823 52.31790885 35.62950873 50.89803835 32.28515625 48.9140625 C31.69445847 48.57032593 31.10376068 48.22658936 30.49516296 47.87243652 C28.60606314 46.76770888 26.73306362 45.63844093 24.859375 44.5078125 C23.61881528 43.77698531 22.37728609 43.04780112 21.13476562 42.3203125 C11.76627939 36.81091866 11.76627939 36.81091866 7.59912109 34.06640625 C6.72980957 33.50050781 5.86049805 32.93460938 4.96484375 32.3515625 C4.22387451 31.84818359 3.48290527 31.34480469 2.71948242 30.82617188 C0.5172657 29.75212278 0.5172657 29.75212278 -1.93701172 30.70214844 C-4.35530436 31.95705131 -6.75894189 33.21043417 -9.12890625 34.5546875 C-10.02649658 35.06241699 -10.92408691 35.57014648 -11.84887695 36.09326172 C-13.29266724 36.91721436 -13.29266724 36.91721436 -14.765625 37.7578125 C-15.78035889 38.33418457 -16.79509277 38.91055664 -17.84057617 39.50439453 C-27.0312128 44.73821651 -36.16500714 50.06805292 -45.29296875 55.41015625 C-54.85742215 61.00405579 -64.46416877 66.52479226 -74.06542969 72.05517578 C-77.64644446 74.11924008 -81.22578487 76.186183 -84.8046875 78.25390625 C-86.60498366 79.29374105 -88.40530331 80.33353517 -90.20562744 81.37332153 C-91.92227708 82.36499234 -93.6386315 83.35717413 -95.35498047 84.34936523 C-96.38768066 84.94563721 -97.42038086 85.54190918 -98.484375 86.15625 C-99.39767578 86.68395996 -100.31097656 87.21166992 -101.25195312 87.75537109 C-102.63301191 88.54117761 -104.03190995 89.29720498 -105.453125 90.0078125 C-105.453125 129.6078125 -105.453125 169.2078125 -105.453125 210.0078125 C-96.543125 214.9578125 -87.633125 219.9078125 -78.453125 225.0078125 C-74.163125 227.6478125 -69.873125 230.2878125 -65.453125 233.0078125 C-70.14836212 236.7640022 -74.7970125 239.78428607 -79.953125 242.8203125 C-81.21576172 243.5927832 -81.21576172 243.5927832 -82.50390625 244.38085938 C-83.32246094 244.86232422 -84.14101562 245.34378906 -84.984375 245.83984375 C-85.72236328 246.28046143 -86.46035156 246.7210791 -87.22070312 247.17504883 C-90.11492447 248.25468455 -91.52582133 247.94360828 -94.453125 247.0078125 C-97.01757812 245.73608398 -97.01757812 245.73608398 -99.734375 244.12890625 C-100.74242188 243.53658203 -101.75046875 242.94425781 -102.7890625 242.33398438 C-104.35527344 241.3990918 -104.35527344 241.3990918 -105.953125 240.4453125 C-106.96632813 239.84912109 -107.97953125 239.25292969 -109.0234375 238.63867188 C-111.04297419 237.44612268 -113.05204752 236.23562875 -115.04885578 235.00540161 C-118.39950894 232.96962222 -118.39950894 232.96962222 -121.86449718 231.40512085 C-130.73343565 226.92931567 -130.73343565 226.92931567 -132.62748146 221.87239075 C-133.05504319 217.9599314 -133.06478973 214.16057778 -132.92895508 210.23828125 C-132.92528345 208.74943872 -132.92735564 207.26057268 -132.93470764 205.77174377 C-132.93842469 201.74753283 -132.86224731 197.72840178 -132.77124619 193.70536804 C-132.68973995 189.4949247 -132.68232473 185.28435268 -132.66691589 181.07324219 C-132.62657705 173.10733895 -132.51999915 165.14376686 -132.38937253 157.17888832 C-132.24384813 148.10786361 -132.1725363 139.03672497 -132.10733187 129.96482277 C-131.97160202 111.31116637 -131.74308307 92.65967711 -131.453125 74.0078125 C-123.9952596 69.74617513 -116.53739421 65.48453776 -109.07952881 61.22290039 C-108.46128235 60.8696167 -107.84303589 60.51633301 -107.20605469 60.15234375 C-95.45507812 53.4375 -83.70410156 46.72265625 -71.953125 40.0078125 C-71.37568039 39.67784271 -70.79823578 39.34787292 -70.20329285 39.00790405 C-69.0360717 38.34092345 -67.86884554 37.67395161 -66.70161438 37.00698853 C-63.79339022 35.34519683 -60.88525197 33.68325516 -57.97729492 32.02099609 C-52.62675979 28.96270259 -47.27552119 25.90566777 -41.92115784 22.8540802 C-40.07682771 21.80281522 -38.23284233 20.75094769 -36.38891602 19.69897461 C-34.00387298 18.33831466 -31.61748511 16.98005606 -29.23022461 15.62329102 C-24.14502861 12.725612 -19.08196583 9.80825134 -14.09375 6.74609375 C-12.91365356 6.02655518 -12.91365356 6.02655518 -11.7097168 5.29248047 C-10.3020797 4.42819411 -8.90171216 3.55188791 -7.51098633 2.66064453 C-4.9502354 1.09019597 -3.04334248 0.00969217 0 0 Z " fill="#2475BB" transform="translate(131.453125,-0.0078125)"/>
</svg>
